<?xml version="1.0" encoding="UTF-8" standalone="no"?>
<!-- Created with Inkscape (http://www.inkscape.org/) -->

<svg
   version="1.1"
   id="svg2"
   width="555.57977"
   height="484.67126"
   viewBox="0 0 555.57977 484.67128"
   sodipodi:docname="sec05_client2.svg"
   inkscape:version="1.2.2 (b0a8486541, 2022-12-01)"
   xmlns:inkscape="http://www.inkscape.org/namespaces/inkscape"
   xmlns:sodipodi="http://sodipodi.sourceforge.net/DTD/sodipodi-0.dtd"
   xmlns="http://www.w3.org/2000/svg"
   xmlns:svg="http://www.w3.org/2000/svg">
  <defs
     id="defs6">
    <clipPath
       clipPathUnits="userSpaceOnUse"
       id="clipPath18">
      <path
         d="M 116.66667,116.66667 H 2362.5002 V 3391.6669 H 116.66667 Z"
         clip-rule="evenodd"
         id="path16" />
    </clipPath>
    <clipPath
       clipPathUnits="userSpaceOnUse"
       id="clipPath36">
      <path
         d="m 413.54169,301.04169 h 493.75006 v 65.625 H 413.54169 Z"
         clip-rule="evenodd"
         id="path34" />
    </clipPath>
    <clipPath
       clipPathUnits="userSpaceOnUse"
       id="clipPath50">
      <path
         d="m 426.04169,310.41669 h 468.75006 v 46.875 H 426.04169 Z"
         clip-rule="evenodd"
         id="path48" />
    </clipPath>
    <clipPath
       clipPathUnits="userSpaceOnUse"
       id="clipPath64">
      <path
         d="M 116.66667,116.66667 H 2362.5002 V 3391.6669 H 116.66667 Z"
         clip-rule="evenodd"
         id="path62" />
    </clipPath>
    <clipPath
       clipPathUnits="userSpaceOnUse"
       id="clipPath78">
      <path
         d="m 1107.2918,301.04169 h 493.75 v 65.625 h -493.75 z"
         clip-rule="evenodd"
         id="path76" />
    </clipPath>
    <clipPath
       clipPathUnits="userSpaceOnUse"
       id="clipPath92">
      <path
         d="m 1119.7918,310.41669 h 468.75 v 46.875 h -468.75 z"
         clip-rule="evenodd"
         id="path90" />
    </clipPath>
    <clipPath
       clipPathUnits="userSpaceOnUse"
       id="clipPath106">
      <path
         d="m 1613.5418,310.41669 h 40.625 v 40.625 h -40.625 z"
         clip-rule="evenodd"
         id="path104" />
    </clipPath>
    <clipPath
       clipPathUnits="userSpaceOnUse"
       id="clipPath120">
      <path
         d="M 116.66667,116.66667 H 2362.5002 V 3391.6669 H 116.66667 Z"
         clip-rule="evenodd"
         id="path118" />
    </clipPath>
  </defs>
  <sodipodi:namedview
     id="namedview4"
     pagecolor="#ffffff"
     bordercolor="#666666"
     borderopacity="1.0"
     inkscape:showpageshadow="2"
     inkscape:pageopacity="0.0"
     inkscape:pagecheckerboard="0"
     inkscape:deskcolor="#d1d1d1"
     showgrid="false"
     inkscape:zoom="1.1892617"
     inkscape:cx="-130.75339"
     inkscape:cy="289.25509"
     inkscape:window-width="1920"
     inkscape:window-height="1011"
     inkscape:window-x="0"
     inkscape:window-y="32"
     inkscape:window-maximized="1"
     inkscape:current-layer="g10">
    <inkscape:page
       x="0"
       y="0"
       id="page8"
       width="555.57977"
       height="484.6713" />
  </sodipodi:namedview>
  <g
     id="g10"
     inkscape:groupmode="layer"
     inkscape:label="Page 1"
     transform="matrix(0.31999998,0,0,0.31999998,-45.753576,-60.662058)">
    <g
       id="g12">
      <g
         id="g14"
         clip-path="url(#clipPath18)">
        <g
           id="g20"
           transform="matrix(3.1250002,0,0,3.1250002,116.66667,116.66667)">
          <text
             xml:space="preserve"
             transform="translate(8,36)"
             style="font-variant:normal;font-weight:bold;font-size:18.71px;font-family:'Times New Roman';-inkscape-font-specification:TimesNewRomanPS-BoldMT;writing-mode:lr-tb;fill:#000000;fill-opacity:1;fill-rule:nonzero;stroke:none"
             id="text24"><tspan
               x="0 11.424622 25.972519 36.374313"
               y="0"
               sodipodi:role="line"
               id="tspan22">POST</tspan></text>
          <text
             xml:space="preserve"
             transform="translate(48,74)"
             style="font-variant:normal;font-weight:normal;font-size:16px;font-family:'Times New Roman';-inkscape-font-specification:TimesNewRomanPSMT;writing-mode:lr-tb;fill:#000000;fill-opacity:1;fill-rule:nonzero;stroke:none"
             id="text28"><tspan
               x="0 11.554688 18.65625 31.101562 38.203125 42.648438"
               y="0"
               sodipodi:role="line"
               id="tspan26">Name: </tspan></text>
        </g>
      </g>
    </g>
    <g
       id="g30">
      <g
         id="g32"
         clip-path="url(#clipPath36)">
        <g
           id="g38"
           transform="matrix(3.1250002,0,0,3.1250002,116.66667,116.66667)">
          <path
             d="m 95.5,77.5 v -16 c -8e-6,-0.265221 0.05074,-0.520344 0.152229,-0.765373 0.101487,-0.24503 0.246003,-0.461312 0.433548,-0.648846 0.187531,-0.187538 0.403809,-0.332054 0.648842,-0.433544 C 96.979652,59.550747 97.234779,59.5 97.5,59.5 h 153 c 0.26521,0 0.52032,0.05075 0.76535,0.152237 0.24501,0.10149 0.4613,0.246006 0.64885,0.433544 0.18753,0.187534 0.33203,0.403816 0.43352,0.648846 0.1015,0.245029 0.15226,0.500152 0.15228,0.765373 v 16 c -2e-5,0.265213 -0.0508,0.520332 -0.15228,0.765366 -0.10149,0.245025 -0.24599,0.461311 -0.43352,0.648849 -0.18755,0.187531 -0.40384,0.332047 -0.64885,0.43354 C 251.02032,79.449249 250.76521,79.499992 250.5,79.5 h -153 c -0.265221,-8e-6 -0.520348,-0.05075 -0.765381,-0.152245 -0.245033,-0.101493 -0.461311,-0.246009 -0.648842,-0.43354 C 95.898232,78.726677 95.753716,78.510391 95.652229,78.265366 95.550735,78.020332 95.499992,77.765213 95.5,77.5 Z"
             style="fill:#e8f0fe;fill-opacity:1;fill-rule:nonzero;stroke:none"
             id="path40" />
          <path
             d="m 95.5,77.5 v -16 c -8e-6,-0.265221 0.05074,-0.520344 0.152229,-0.765373 0.101487,-0.24503 0.246003,-0.461312 0.433548,-0.648846 0.187531,-0.187538 0.403809,-0.332054 0.648842,-0.433544 C 96.979652,59.550747 97.234779,59.5 97.5,59.5 h 153 c 0.26521,0 0.52032,0.05075 0.76535,0.152237 0.24501,0.10149 0.4613,0.246006 0.64885,0.433544 0.18753,0.187534 0.33203,0.403816 0.43352,0.648846 0.1015,0.245029 0.15226,0.500152 0.15228,0.765373 v 16 c -2e-5,0.265213 -0.0508,0.520332 -0.15228,0.765366 -0.10149,0.245025 -0.24599,0.461311 -0.43352,0.648849 -0.18755,0.187531 -0.40384,0.332047 -0.64885,0.43354 C 251.02032,79.449249 250.76521,79.499992 250.5,79.5 h -153 c -0.265221,-8e-6 -0.520348,-0.05075 -0.765381,-0.152245 -0.245033,-0.101493 -0.461311,-0.246009 -0.648842,-0.43354 C 95.898232,78.726677 95.753716,78.510391 95.652229,78.265366 95.550735,78.020332 95.499992,77.765213 95.5,77.5 Z"
             style="fill:none;stroke:#767676;stroke-width:1;stroke-linecap:butt;stroke-linejoin:miter;stroke-miterlimit:10;stroke-dasharray:none;stroke-opacity:0.75"
             id="path42" />
        </g>
      </g>
    </g>
    <g
       id="g44">
      <g
         id="g46"
         clip-path="url(#clipPath50)">
        <g
           id="g52"
           transform="matrix(3.1250002,0,0,3.1250002,426.04169,310.41669)">
          <text
             xml:space="preserve"
             transform="translate(-0.34375,12)"
             style="font-variant:normal;font-weight:normal;font-size:13.33px;font-family:'VL Gothic';-inkscape-font-specification:VL-Gothic-Regular;writing-mode:lr-tb;fill:#000000;fill-opacity:1;fill-rule:nonzero;stroke:none"
             id="text56"><tspan
               x="0 13.328079"
               y="0"
               sodipodi:role="line"
               id="tspan54">筒井</tspan></text>
        </g>
      </g>
    </g>
    <g
       id="g58">
      <g
         id="g60"
         clip-path="url(#clipPath64)">
        <g
           id="g66"
           transform="matrix(3.1250002,0,0,3.1250002,116.66667,116.66667)">
          <text
             xml:space="preserve"
             transform="translate(252.65625,74)"
             style="font-variant:normal;font-weight:normal;font-size:16px;font-family:'Times New Roman';-inkscape-font-specification:TimesNewRomanPSMT;writing-mode:lr-tb;fill:#000000;fill-opacity:1;fill-rule:nonzero;stroke:none"
             id="text70"><tspan
               x="0 14.226562 21.328125 27.554688 33.78125 40.882812 48.882812 55.984375 60.429688"
               y="0"
               sodipodi:role="line"
               id="tspan68">Message: </tspan></text>
        </g>
      </g>
    </g>
    <g
       id="g72">
      <g
         id="g74"
         clip-path="url(#clipPath78)">
        <g
           id="g80"
           transform="matrix(3.1250002,0,0,3.1250002,116.66667,116.66667)">
          <path
             d="m 317.5,77.5 v -16 c -3e-5,-0.265221 0.0507,-0.520344 0.15222,-0.765373 0.10147,-0.24503 0.24597,-0.461312 0.43356,-0.648846 0.18754,-0.187538 0.40378,-0.332054 0.64881,-0.433544 C 318.97964,59.550747 319.23477,59.5 319.5,59.5 h 153 c 0.2652,0 0.52029,0.05075 0.76532,0.152237 0.24503,0.10149 0.46133,0.246006 0.64886,0.433544 0.18754,0.187534 0.33204,0.403816 0.43351,0.648846 0.10153,0.245029 0.15228,0.500152 0.15231,0.765373 v 16 c -3e-5,0.265213 -0.0508,0.520332 -0.15228,0.765366 -0.1015,0.245025 -0.246,0.461311 -0.43354,0.648849 -0.18753,0.187531 -0.40383,0.332047 -0.64889,0.43354 -0.245,0.101494 -0.50009,0.152237 -0.76529,0.152245 h -153 c -0.26523,-8e-6 -0.52036,-0.05075 -0.76541,-0.152245 -0.24503,-0.101493 -0.46127,-0.246009 -0.64881,-0.43354 -0.18759,-0.187538 -0.33209,-0.403824 -0.43356,-0.648849 C 317.55072,78.020332 317.49997,77.765213 317.5,77.5 Z"
             style="fill:#e8f0fe;fill-opacity:1;fill-rule:nonzero;stroke:none"
             id="path82" />
          <path
             d="m 317.5,77.5 v -16 c -3e-5,-0.265221 0.0507,-0.520344 0.15222,-0.765373 0.10147,-0.24503 0.24597,-0.461312 0.43356,-0.648846 0.18754,-0.187538 0.40378,-0.332054 0.64881,-0.433544 C 318.97964,59.550747 319.23477,59.5 319.5,59.5 h 153 c 0.2652,0 0.52029,0.05075 0.76532,0.152237 0.24503,0.10149 0.46133,0.246006 0.64886,0.433544 0.18754,0.187534 0.33204,0.403816 0.43351,0.648846 0.10153,0.245029 0.15228,0.500152 0.15231,0.765373 v 16 c -3e-5,0.265213 -0.0508,0.520332 -0.15228,0.765366 -0.1015,0.245025 -0.246,0.461311 -0.43354,0.648849 -0.18753,0.187531 -0.40383,0.332047 -0.64889,0.43354 -0.245,0.101494 -0.50009,0.152237 -0.76529,0.152245 h -153 c -0.26523,-8e-6 -0.52036,-0.05075 -0.76541,-0.152245 -0.24503,-0.101493 -0.46127,-0.246009 -0.64881,-0.43354 -0.18759,-0.187538 -0.33209,-0.403824 -0.43356,-0.648849 C 317.55072,78.020332 317.49997,77.765213 317.5,77.5 Z"
             style="fill:none;stroke:#767676;stroke-width:1;stroke-linecap:butt;stroke-linejoin:miter;stroke-miterlimit:10;stroke-dasharray:none;stroke-opacity:0.75"
             id="path84" />
        </g>
      </g>
    </g>
    <g
       id="g86">
      <g
         id="g88"
         clip-path="url(#clipPath92)">
        <g
           id="g94"
           transform="matrix(3.1250002,0,0,3.1250002,1119.7918,310.41669)">
          <text
             xml:space="preserve"
             transform="translate(0.09375,12)"
             style="font-variant:normal;font-weight:normal;font-size:13.33px;font-family:'VL Gothic';-inkscape-font-specification:VL-Gothic-Regular;writing-mode:lr-tb;fill:#000000;fill-opacity:1;fill-rule:nonzero;stroke:none"
             id="text98"><tspan
               x="0 13.328079 26.656158"
               y="0"
               sodipodi:role="line"
               id="tspan96">テスト</tspan></text>
        </g>
      </g>
    </g>
    <g
       id="g100">
      <g
         id="g102"
         clip-path="url(#clipPath106)">
        <g
           id="g108"
           transform="matrix(3.1250002,0,0,3.1250002,116.66667,116.66667)">
          <path
             d="m 479.20001,72.800003 v -8.600006 c -3e-5,-0.265217 0.0507,-0.520344 0.15222,-0.765377 0.10144,-0.245026 0.24595,-0.461304 0.43351,-0.648838 0.18753,-0.187538 0.4038,-0.332054 0.64883,-0.433548 0.24506,-0.10149 0.50021,-0.152233 0.76544,-0.152233 h 8.59998 c 0.2652,0 0.52029,0.05074 0.76529,0.152233 0.24502,0.101494 0.4613,0.24601 0.64886,0.433548 0.1875,0.187534 0.332,0.403812 0.43353,0.648838 0.10151,0.245033 0.15229,0.50016 0.15232,0.765377 v 8.600006 c -3e-5,0.265205 -0.0508,0.520332 -0.15232,0.765366 -0.10153,0.245018 -0.24603,0.461303 -0.43353,0.648849 -0.18756,0.187531 -0.40384,0.332039 -0.64886,0.433533 -0.245,0.101494 -0.50009,0.152244 -0.76529,0.152252 h -8.59998 c -0.26523,-8e-6 -0.52038,-0.05076 -0.76544,-0.152252 -0.24503,-0.101494 -0.4613,-0.246002 -0.64883,-0.433533 -0.18756,-0.187546 -0.3321,-0.403831 -0.43357,-0.648849 -0.10147,-0.245034 -0.15219,-0.500161 -0.15216,-0.765366 z"
             style="fill:#ffffff;fill-opacity:1;fill-rule:nonzero;stroke:none"
             id="path110" />
          <path
             d="m 479.5,72.5 v -8 c -3e-5,-0.265221 0.0507,-0.520348 0.15222,-0.765373 0.1015,-0.24503 0.24603,-0.461312 0.43356,-0.648846 0.18754,-0.187538 0.40381,-0.332054 0.64884,-0.433548 C 480.97964,62.550743 481.23477,62.5 481.5,62.5 h 8 c 0.26517,0 0.52029,0.05075 0.76532,0.152237 0.24503,0.10149 0.4613,0.246006 0.64886,0.433544 0.18754,0.187534 0.33204,0.403816 0.43354,0.648846 0.1015,0.245025 0.15225,0.500152 0.15228,0.765373 v 8 c -3e-5,0.265213 -0.0508,0.520332 -0.15228,0.765358 -0.1015,0.245026 -0.246,0.461311 -0.43354,0.648849 -0.18756,0.187531 -0.40383,0.332047 -0.64886,0.433548 C 490.02029,74.449249 489.76517,74.499992 489.5,74.5 h -8 c -0.26523,-8e-6 -0.52036,-0.05075 -0.76538,-0.152245 -0.24503,-0.101501 -0.4613,-0.246017 -0.64884,-0.433548 -0.18753,-0.187538 -0.33206,-0.403823 -0.43356,-0.648849 C 479.55072,73.020332 479.49997,72.765213 479.5,72.5 Z"
             style="fill:none;stroke:#767676;stroke-width:1;stroke-linecap:butt;stroke-linejoin:miter;stroke-miterlimit:10;stroke-dasharray:none;stroke-opacity:1"
             id="path112" />
        </g>
      </g>
    </g>
    <g
       id="g114">
      <g
         id="g116"
         clip-path="url(#clipPath120)">
        <g
           id="g122"
           transform="matrix(3.1250002,0,0,3.1250002,116.66667,116.66667)">
          <path
             d="m 49,97 h 50 v 19 H 49 Z"
             style="fill:#efefef;fill-opacity:1;fill-rule:nonzero;stroke:none"
             id="path124" />
          <path
             d="m 49.5,97.5 h 49 v 18 h -49 z"
             style="fill:none;stroke:#aa8888;stroke-width:1;stroke-linecap:butt;stroke-linejoin:miter;stroke-miterlimit:10;stroke-dasharray:none;stroke-opacity:1"
             id="path126" />
          <text
             xml:space="preserve"
             transform="translate(56,111)"
             style="font-variant:normal;font-weight:normal;font-size:13.33px;font-family:Arial;-inkscape-font-specification:ArialMT;writing-mode:lr-tb;fill:#000000;fill-opacity:1;fill-rule:nonzero;stroke:none"
             id="text130"><tspan
               x="0 8.8897552 19.256805 28.146561"
               y="0"
               sodipodi:role="line"
               id="tspan128">POST</tspan></text>
          <path
             d="m 101,97 h 46 v 19 h -46 z"
             style="fill:#efefef;fill-opacity:1;fill-rule:nonzero;stroke:none"
             id="path132" />
          <path
             d="m 101.5,97.5 h 45 v 18 h -45 z"
             style="fill:none;stroke:#aa8888;stroke-width:1;stroke-linecap:butt;stroke-linejoin:miter;stroke-miterlimit:10;stroke-dasharray:none;stroke-opacity:1"
             id="path134" />
          <text
             xml:space="preserve"
             transform="translate(108.29688,111)"
             style="font-variant:normal;font-weight:normal;font-size:13.33px;font-family:Arial;-inkscape-font-specification:ArialMT;writing-mode:lr-tb;fill:#000000;fill-opacity:1;fill-rule:nonzero;stroke:none"
             id="text138"><tspan
               x="0 9.6251526 12.586243 19.998718 27.411194"
               y="0"
               sodipodi:role="line"
               id="tspan136">Clear</tspan></text>
          <text
             xml:space="preserve"
             transform="translate(8,153)"
             style="font-variant:normal;font-weight:bold;font-size:18.71px;font-family:'Times New Roman';-inkscape-font-specification:TimesNewRomanPS-BoldMT;writing-mode:lr-tb;fill:#000000;fill-opacity:1;fill-rule:nonzero;stroke:none"
             id="text142"><tspan
               x="0 14.547897 27.022736"
               y="0"
               sodipodi:role="line"
               id="tspan140">GET</tspan></text>
          <path
             d="m 49,178 h 41 v 19 H 49 Z"
             style="fill:#efefef;fill-opacity:1;fill-rule:nonzero;stroke:none"
             id="path144" />
          <path
             d="m 49.5,178.5 h 40 v 18 h -40 z"
             style="fill:none;stroke:#aa8888;stroke-width:1;stroke-linecap:butt;stroke-linejoin:miter;stroke-miterlimit:10;stroke-dasharray:none;stroke-opacity:1"
             id="path146" />
          <text
             xml:space="preserve"
             transform="translate(56,192)"
             style="font-variant:normal;font-weight:normal;font-size:13.33px;font-family:Arial;-inkscape-font-specification:ArialMT;writing-mode:lr-tb;fill:#000000;fill-opacity:1;fill-rule:nonzero;stroke:none"
             id="text150"><tspan
               x="0 10.36705 19.256805"
               y="0"
               sodipodi:role="line"
               id="tspan148">GET</tspan></text>
          <path
             d="m 92,178 h 46 v 19 H 92 Z"
             style="fill:#efefef;fill-opacity:1;fill-rule:nonzero;stroke:none"
             id="path152" />
          <path
             d="m 92.5,178.5 h 45 v 18 h -45 z"
             style="fill:none;stroke:#aa8888;stroke-width:1;stroke-linecap:butt;stroke-linejoin:miter;stroke-miterlimit:10;stroke-dasharray:none;stroke-opacity:1"
             id="path154" />
          <text
             xml:space="preserve"
             transform="translate(99.40625,192)"
             style="font-variant:normal;font-weight:normal;font-size:13.33px;font-family:Arial;-inkscape-font-specification:ArialMT;writing-mode:lr-tb;fill:#000000;fill-opacity:1;fill-rule:nonzero;stroke:none"
             id="text158"><tspan
               x="0 9.6251526 12.586243 19.998718 27.411194"
               y="0"
               sodipodi:role="line"
               id="tspan156">Clear</tspan></text>
          <text
             xml:space="preserve"
             transform="translate(8,234)"
             style="font-variant:normal;font-weight:bold;font-size:18.71px;font-family:'Times New Roman';-inkscape-font-specification:TimesNewRomanPS-BoldMT;writing-mode:lr-tb;fill:#000000;fill-opacity:1;fill-rule:nonzero;stroke:none"
             id="text162"><tspan
               x="0 11.424622 16.620956 21.817291 28.045578 36.346924"
               y="0"
               sodipodi:role="line"
               id="tspan160">Filter</tspan></text>
          <path
             d="m 49,258 h 38 v 19 H 49 Z"
             style="fill:#efefef;fill-opacity:1;fill-rule:nonzero;stroke:none"
             id="path164" />
          <path
             d="m 49.5,258.5 h 37 v 18 h -37 z"
             style="fill:none;stroke:#aa8888;stroke-width:1;stroke-linecap:butt;stroke-linejoin:miter;stroke-miterlimit:10;stroke-dasharray:none;stroke-opacity:1"
             id="path166" />
          <text
             xml:space="preserve"
             transform="translate(56,272)"
             style="font-variant:normal;font-weight:normal;font-size:13.33px;font-family:Arial;-inkscape-font-specification:ArialMT;writing-mode:lr-tb;fill:#000000;fill-opacity:1;fill-rule:nonzero;stroke:none"
             id="text170"><tspan
               x="0 8.8897552 16.302231"
               y="0"
               sodipodi:role="line"
               id="tspan168">ALL</tspan></text>
          <path
             d="m 89,258 h 26 v 19 H 89 Z"
             style="fill:#efefef;fill-opacity:1;fill-rule:nonzero;stroke:none"
             id="path172" />
          <path
             d="m 89.5,258.5 h 25 v 18 h -25 z"
             style="fill:none;stroke:#aa8888;stroke-width:1;stroke-linecap:butt;stroke-linejoin:miter;stroke-miterlimit:10;stroke-dasharray:none;stroke-opacity:1"
             id="path174" />
          <text
             xml:space="preserve"
             transform="translate(95.71875,272)"
             style="font-variant:normal;font-weight:normal;font-size:13.33px;font-family:'DejaVu Sans';-inkscape-font-specification:DejaVuSans;writing-mode:lr-tb;fill:#000000;fill-opacity:1;fill-rule:nonzero;stroke:none"
             id="text178"><tspan
               x="0"
               y="0"
               id="tspan176">★</tspan></text>
          <path
             d="m 117,258 h 26 v 19 h -26 z"
             style="fill:#efefef;fill-opacity:1;fill-rule:nonzero;stroke:none"
             id="path180" />
          <path
             d="m 117.5,258.5 h 25 v 18 h -25 z"
             style="fill:none;stroke:#aa8888;stroke-width:1;stroke-linecap:butt;stroke-linejoin:miter;stroke-miterlimit:10;stroke-dasharray:none;stroke-opacity:1"
             id="path182" />
          <text
             xml:space="preserve"
             transform="translate(123.67187,272)"
             style="font-variant:normal;font-weight:normal;font-size:13.33px;font-family:'DejaVu Sans';-inkscape-font-specification:DejaVuSans;writing-mode:lr-tb;fill:#000000;fill-opacity:1;fill-rule:nonzero;stroke:none"
             id="text186"><tspan
               x="0"
               y="0"
               id="tspan184">☆</tspan></text>
          <path
             d="M 48.5,397.79001 V 306.84 c 0,-0.81028 0.128994,-1.61274 0.386978,-2.40744 0.257988,-0.79471 0.640015,-1.56635 1.14608,-2.31491 0.506062,-0.7486 1.126442,-1.45975 1.861138,-2.13346 0.734691,-0.67367 1.569583,-1.297 2.504669,-1.8699 0.935085,-0.57294 1.952396,-1.0845 3.051941,-1.53467 1.099544,-0.45016 2.260189,-0.83026 3.481941,-1.14032 1.221748,-0.31006 2.481121,-0.54413 3.778122,-0.70221 1.297005,-0.15805 2.60672,-0.23706 3.92913,-0.23709 H 214.84 c 0.61793,0 1.21237,0.0688 1.78329,0.20624 0.57091,0.13754 1.07485,0.33337 1.51181,0.58749 0.43694,0.25409 0.77365,0.54715 1.01015,0.87918 0.23649,0.332 0.35473,0.67771 0.35475,1.03708 V 388.16 c -2e-5,0.81028 -0.12901,1.61274 -0.38701,2.40738 -0.25798,0.79468 -0.64001,1.56632 -1.14609,2.31488 -0.50607,0.74857 -1.12645,1.45972 -1.86113,2.1334 -0.73469,0.67373 -1.56959,1.29705 -2.50467,1.86999 -0.93507,0.57291 -1.95239,1.08447 -3.05195,1.53464 -1.09953,0.45016 -2.26016,0.83029 -3.48192,1.14035 -1.22176,0.31006 -2.48112,0.54413 -3.77814,0.70224 C 201.99211,400.42096 200.6824,400.5 199.36,400.5 H 53.16 c -0.617958,0 -1.212395,-0.0688 -1.783306,-0.2063 -0.570919,-0.13754 -1.07486,-0.33337 -1.511814,-0.58746 -0.436963,-0.25412 -0.773686,-0.54718 -1.010167,-0.87918 -0.23648,-0.332 -0.354717,-0.67771 -0.354713,-1.03705 z"
             style="fill:#ffeeee;fill-opacity:1;fill-rule:nonzero;stroke:none"
             id="path188" />
          <path
             d="M 48,397.79001 V 306.84 c -4e-6,-0.84311 0.132191,-1.6781 0.396584,-2.50498 0.264392,-0.8269 0.655906,-1.62982 1.174533,-2.40872 0.518628,-0.7789 1.154408,-1.51883 1.907341,-2.21985 0.752934,-0.70099 1.608551,-1.34955 2.566853,-1.94571 0.958302,-0.59616 2.000874,-1.12842 3.127716,-1.59683 1.126843,-0.46838 2.316299,-0.86389 3.568378,-1.18652 1.252079,-0.32267 2.542721,-0.5662 3.871922,-0.73066 C 65.942528,294.08224 67.284752,294 68.639999,294 H 214.84 c 0.68425,0 1.34246,0.0815 1.97462,0.24432 0.63217,0.16291 1.19019,0.39484 1.67404,0.69584 0.48384,0.30099 0.85668,0.6481 1.11853,1.04138 0.26186,0.39328 0.39279,0.80276 0.39281,1.22845 V 388.16 c -2e-5,0.84308 -0.13222,1.67807 -0.39662,2.50495 -0.26441,0.82687 -0.65592,1.62979 -1.17455,2.40869 -0.51863,0.77893 -1.1544,1.51889 -1.90733,2.21988 -0.75293,0.70099 -1.60855,1.34955 -2.56685,1.94571 -0.95831,0.59613 -2.00088,1.12838 -3.12773,1.5968 -1.12685,0.46835 -2.3163,0.86386 -3.56836,1.18652 -1.25208,0.32266 -2.54271,0.56623 -3.87192,0.73068 C 202.05745,400.91776 200.71524,401 199.36,401 H 53.16 c -0.684265,-3e-5 -1.342484,-0.0815 -1.974655,-0.24438 -0.632168,-0.16291 -1.190174,-0.39484 -1.674019,-0.69584 -0.483845,-0.30102 -0.856697,-0.64816 -1.118553,-1.04138 C 48.13092,398.62512 47.999996,398.21564 48,397.79001 Z m 1,0 V 306.84 c -4e-6,-0.77744 0.125786,-1.54743 0.377369,-2.30991 0.251587,-0.76248 0.62413,-1.50287 1.11763,-2.22113 0.493504,-0.71823 1.09848,-1.40054 1.814934,-2.04697 0.716449,-0.64639 1.530613,-1.24444 2.442486,-1.79416 0.911869,-0.54971 1.903926,-1.04055 2.976173,-1.47247 1.072246,-0.43191 2.204079,-0.7966 3.395496,-1.09411 1.191418,-0.29752 2.419525,-0.5221 3.68433,-0.67374 C 66.073219,295.07584 67.35041,295 68.639999,295 H 214.84 c 0.55162,0 1.08227,0.0561 1.59193,0.16818 0.50966,0.11215 0.95952,0.27182 1.34961,0.47907 0.39006,0.20721 0.69066,0.44619 0.90176,0.71695 0.21111,0.27078 0.31668,0.5527 0.3167,0.84579 V 388.16 c -2e-5,0.77741 -0.12582,1.54734 -0.37741,2.30982 -0.25159,0.76248 -0.62413,1.50284 -1.11763,2.22107 -0.4935,0.71823 -1.09848,1.40057 -1.81493,2.04699 -0.71644,0.64643 -1.53061,1.24451 -2.44247,1.79426 -0.91188,0.54971 -1.90395,1.04049 -2.9762,1.47241 -1.07225,0.43191 -2.20407,0.79663 -3.39549,1.09414 -1.19142,0.29749 -2.41953,0.52207 -3.68431,0.67377 -1.2648,0.15167 -2.54199,0.22751 -3.83156,0.22754 H 53.16 c -0.551655,-3e-5 -1.08231,-0.0562 -1.591969,-0.1683 -0.509662,-0.11216 -0.959526,-0.27182 -1.349598,-0.47901 -0.390079,-0.20724 -0.690673,-0.44626 -0.901779,-0.71698 C 49.105549,398.36493 48.999996,398.08304 49,397.79001 Z"
             style="fill:#ccaaaa;fill-opacity:1;fill-rule:evenodd;stroke:none"
             id="path190" />
          <text
             xml:space="preserve"
             transform="translate(54,314)"
             style="font-variant:normal;font-weight:normal;font-size:16px;font-family:'Times New Roman';-inkscape-font-specification:TimesNewRomanPSMT;writing-mode:lr-tb;fill:#000000;fill-opacity:1;fill-rule:nonzero;stroke:none"
             id="text194"><tspan
               x="0 8"
               y="0"
               sodipodi:role="line"
               id="tspan192">4 </tspan></text>
          <text
             xml:space="preserve"
             transform="translate(66,314)"
             style="font-variant:normal;font-weight:normal;font-size:16px;font-family:'VL Gothic';-inkscape-font-specification:VL-Gothic-Regular;writing-mode:lr-tb;fill:#000000;fill-opacity:1;fill-rule:nonzero;stroke:none"
             id="text198"><tspan
               x="0 16.000031"
               y="0"
               sodipodi:role="line"
               id="tspan196">筒井</tspan></text>
          <text
             xml:space="preserve"
             transform="translate(98.000061,314)"
             style="font-variant:normal;font-weight:normal;font-size:16px;font-family:'Times New Roman';-inkscape-font-specification:TimesNewRomanPSMT;writing-mode:lr-tb;fill:#000000;fill-opacity:1;fill-rule:nonzero;stroke:none"
             id="text202"><tspan
               x="0"
               y="0"
               id="tspan200">:</tspan></text>
          <text
             xml:space="preserve"
             transform="translate(54,332)"
             style="font-variant:normal;font-weight:normal;font-size:16px;font-family:'VL Gothic';-inkscape-font-specification:VL-Gothic-Regular;writing-mode:lr-tb;fill:#000000;fill-opacity:1;fill-rule:nonzero;stroke:none"
             id="text206"><tspan
               x="0 16.000031 32.000061"
               y="0"
               sodipodi:role="line"
               id="tspan204">テスト</tspan></text>
          <text
             xml:space="preserve"
             transform="translate(54,350)"
             style="font-variant:normal;font-weight:normal;font-size:16px;font-family:'Times New Roman';-inkscape-font-specification:TimesNewRomanPSMT;writing-mode:lr-tb;fill:#000000;fill-opacity:1;fill-rule:nonzero;stroke:none"
             id="text210"><tspan
               x="0 9.2109375 13.65625 26.101562 33.203125 37.648438 41.648438 49.648438 57.648438 62.09375 70.09375 78.09375 82.539062 90.539062"
               y="0"
               sodipodi:role="line"
               id="tspan208">Time: 19:54:13</tspan></text>
          <text
             xml:space="preserve"
             transform="translate(54,368)"
             style="font-variant:normal;font-weight:normal;font-size:16px;font-family:'Times New Roman';-inkscape-font-specification:TimesNewRomanPSMT;writing-mode:lr-tb;fill:#000000;fill-opacity:1;fill-rule:nonzero;stroke:none"
             id="text214"><tspan
               x="0 11.554688 19.554688 27.554688 34.65625 39.101562 46.203125 50.648438 54.648438 62.648438 70.648438 75.09375 83.09375 91.09375 95.539062 103.53906"
               y="0"
               sodipodi:role="line"
               id="tspan212">Update: 19:54:13</tspan></text>
          <path
             d="m 55,375 h 53 v 19 H 55 Z"
             style="fill:#efefef;fill-opacity:1;fill-rule:nonzero;stroke:none"
             id="path216" />
          <path
             d="m 55.5,375.5 h 52 v 18 h -52 z"
             style="fill:none;stroke:#aa8888;stroke-width:1;stroke-linecap:butt;stroke-linejoin:miter;stroke-miterlimit:10;stroke-dasharray:none;stroke-opacity:1"
             id="path218" />
          <text
             xml:space="preserve"
             transform="translate(62,389)"
             style="font-variant:normal;font-weight:normal;font-size:13.33px;font-family:Arial;-inkscape-font-specification:ArialMT;writing-mode:lr-tb;fill:#000000;fill-opacity:1;fill-rule:nonzero;stroke:none"
             id="text222"><tspan
               x="0 9.6251526 17.037628 19.998718 27.411194 31.114182"
               y="0"
               sodipodi:role="line"
               id="tspan220">Delete</tspan></text>
          <path
             d="m 110,375 h 37 v 19 h -37 z"
             style="fill:#efefef;fill-opacity:1;fill-rule:nonzero;stroke:none"
             id="path224" />
          <path
             d="m 110.5,375.5 h 36 v 18 h -36 z"
             style="fill:none;stroke:#aa8888;stroke-width:1;stroke-linecap:butt;stroke-linejoin:miter;stroke-miterlimit:10;stroke-dasharray:none;stroke-opacity:1"
             id="path226" />
          <text
             xml:space="preserve"
             transform="translate(116.53125,389)"
             style="font-variant:normal;font-weight:normal;font-size:13.33px;font-family:Arial;-inkscape-font-specification:ArialMT;writing-mode:lr-tb;fill:#000000;fill-opacity:1;fill-rule:nonzero;stroke:none"
             id="text230"><tspan
               x="0 8.8897552 16.302231 19.263321"
               y="0"
               sodipodi:role="line"
               id="tspan228">Edit</tspan></text>
          <text
             xml:space="preserve"
             transform="translate(154.5,389)"
             style="font-variant:normal;font-weight:normal;font-size:16px;font-family:'DejaVu Sans';-inkscape-font-specification:DejaVuSans;writing-mode:lr-tb;fill:#000000;fill-opacity:1;fill-rule:nonzero;stroke:none"
             id="text234"><tspan
               x="0"
               y="0"
               id="tspan232">☆</tspan></text>
          <path
             d="M 220.5,397.79001 V 306.84 c -2e-5,-0.81028 0.12897,-1.61274 0.38695,-2.40744 0.25799,-0.79471 0.64003,-1.56635 1.14609,-2.31491 0.50607,-0.7486 1.12644,-1.45975 1.86114,-2.13346 0.7347,-0.67367 1.5696,-1.297 2.50468,-1.8699 0.93508,-0.57294 1.9524,-1.0845 3.05193,-1.53467 1.09955,-0.45016 2.26019,-0.83026 3.48193,-1.14032 1.22176,-0.31006 2.48114,-0.54413 3.77814,-0.70221 1.29701,-0.15805 2.60672,-0.23706 3.92914,-0.23709 h 146.2 c 0.61792,0 1.21234,0.0688 1.78326,0.20624 0.57089,0.13754 1.07486,0.33337 1.51184,0.58749 0.43692,0.25409 0.77365,0.54715 1.01013,0.87918 0.23648,0.332 0.35474,0.67771 0.35477,1.03708 V 388.16 c -3e-5,0.81028 -0.12903,1.61274 -0.38699,2.40738 -0.258,0.79468 -0.64005,1.56632 -1.14612,2.31488 -0.50607,0.74857 -1.12644,1.45972 -1.86115,2.1334 -0.73468,0.67373 -1.56955,1.29705 -2.5046,1.86999 -0.93509,0.57291 -1.95243,1.08447 -3.05201,1.53464 -1.09955,0.45016 -2.26019,0.83029 -3.48193,1.14035 -1.22177,0.31006 -2.48114,0.54413 -3.77814,0.70224 -1.29699,0.15808 -2.60669,0.23712 -3.92907,0.23712 H 225.16 c -0.61796,0 -1.21241,-0.0688 -1.78334,-0.2063 -0.5709,-0.13754 -1.07484,-0.33337 -1.51179,-0.58746 -0.43697,-0.25412 -0.7737,-0.54718 -1.01018,-0.87918 -0.23648,-0.332 -0.35471,-0.67771 -0.35469,-1.03705 z"
             style="fill:#ffeeee;fill-opacity:1;fill-rule:nonzero;stroke:none"
             id="path236" />
          <path
             d="M 220,397.79001 V 306.84 c -2e-5,-0.84311 0.13219,-1.6781 0.39658,-2.50498 0.26437,-0.8269 0.65588,-1.62982 1.17451,-2.40872 0.51863,-0.7789 1.15442,-1.51883 1.90735,-2.21985 0.75293,-0.70099 1.60855,-1.34955 2.56686,-1.94571 0.9583,-0.59616 2.00086,-1.12842 3.1277,-1.59683 1.12685,-0.46838 2.31632,-0.86389 3.56839,-1.18652 1.25209,-0.32267 2.54273,-0.5662 3.87192,-0.73066 C 237.94252,294.08224 239.28474,294 240.64,294 h 146.2 c 0.68423,0 1.34243,0.0815 1.97461,0.24432 0.63217,0.16291 1.19018,0.39484 1.67404,0.69584 0.48382,0.30099 0.85666,0.6481 1.11853,1.04138 0.26187,0.39328 0.39279,0.80276 0.39282,1.22845 V 388.16 c -3e-5,0.84308 -0.13223,1.67807 -0.39664,2.50495 -0.2644,0.82687 -0.65591,1.62979 -1.17456,2.40869 -0.51864,0.77893 -1.15442,1.51889 -1.90732,2.21988 -0.75293,0.70099 -1.60855,1.34955 -2.56683,1.94571 -0.95831,0.59613 -2.00088,1.12838 -3.12772,1.5968 -1.12686,0.46835 -2.31634,0.86386 -3.56842,1.18652 -1.25207,0.32266 -2.54269,0.56623 -3.87188,0.73068 C 374.05743,400.91776 372.71524,401 371.35999,401 H 225.16 c -0.68426,-3e-5 -1.34248,-0.0815 -1.97465,-0.24438 -0.63219,-0.16291 -1.19019,-0.39484 -1.67403,-0.69584 -0.48384,-0.30102 -0.8567,-0.64816 -1.11856,-1.04138 -0.26185,-0.39328 -0.39278,-0.80276 -0.39276,-1.22839 z m 1,0 V 306.84 c -2e-5,-0.77744 0.12578,-1.54743 0.37737,-2.30991 0.25157,-0.76248 0.62411,-1.50287 1.11761,-2.22113 0.4935,-0.71823 1.09846,-1.40054 1.81491,-2.04697 0.71646,-0.64639 1.53064,-1.24444 2.44252,-1.79416 0.91188,-0.54971 1.90393,-1.04055 2.97617,-1.47247 1.07225,-0.43191 2.20408,-0.7966 3.3955,-1.09411 1.19141,-0.29752 2.41953,-0.5221 3.68435,-0.67374 C 238.07321,295.07584 239.3504,295 240.64,295 h 146.2 c 0.5516,0 1.08221,0.0561 1.59188,0.16818 0.50965,0.11215 0.95954,0.27182 1.34964,0.47907 0.39008,0.20721 0.69068,0.44619 0.90177,0.71695 0.21112,0.27078 0.31668,0.5527 0.31671,0.84579 V 388.16 c 0,0.77741 -0.12579,1.54734 -0.37741,2.30982 -0.25162,0.76248 -0.62415,1.50284 -1.11765,2.22107 -0.4935,0.71823 -1.09848,1.40057 -1.81494,2.04699 -0.71643,0.64643 -1.53058,1.24451 -2.44244,1.79426 -0.9119,0.54971 -1.90399,1.04049 -2.97623,1.47241 -1.07223,0.43191 -2.20407,0.79663 -3.39548,1.09414 -1.1914,0.29749 -2.41952,0.52207 -3.68432,0.67377 -1.2648,0.15167 -2.54196,0.22751 -3.83154,0.22754 H 225.16 c -0.55166,-3e-5 -1.08233,-0.0562 -1.59201,-0.1683 -0.50966,-0.11216 -0.95952,-0.27182 -1.34958,-0.47901 -0.39009,-0.20724 -0.69068,-0.44626 -0.90179,-0.71698 -0.21111,-0.27078 -0.31664,-0.55267 -0.31662,-0.8457 z"
             style="fill:#ccaaaa;fill-opacity:1;fill-rule:evenodd;stroke:none"
             id="path238" />
          <text
             xml:space="preserve"
             transform="translate(226,314)"
             style="font-variant:normal;font-weight:normal;font-size:16px;font-family:'Times New Roman';-inkscape-font-specification:TimesNewRomanPSMT;writing-mode:lr-tb;fill:#000000;fill-opacity:1;fill-rule:nonzero;stroke:none"
             id="text242"><tspan
               x="0 8"
               y="0"
               sodipodi:role="line"
               id="tspan240">3 </tspan></text>
          <text
             xml:space="preserve"
             transform="translate(238,314)"
             style="font-variant:normal;font-weight:normal;font-size:16px;font-family:'VL Gothic';-inkscape-font-specification:VL-Gothic-Regular;writing-mode:lr-tb;fill:#000000;fill-opacity:1;fill-rule:nonzero;stroke:none"
             id="text246"><tspan
               x="0 16.000031"
               y="0"
               sodipodi:role="line"
               id="tspan244">筒井</tspan></text>
          <text
             xml:space="preserve"
             transform="translate(270.00006,314)"
             style="font-variant:normal;font-weight:normal;font-size:16px;font-family:'Times New Roman';-inkscape-font-specification:TimesNewRomanPSMT;writing-mode:lr-tb;fill:#000000;fill-opacity:1;fill-rule:nonzero;stroke:none"
             id="text250"><tspan
               x="0"
               y="0"
               id="tspan248">:</tspan></text>
          <text
             xml:space="preserve"
             transform="translate(226,332)"
             style="font-variant:normal;font-weight:normal;font-size:16px;font-family:'VL Gothic';-inkscape-font-specification:VL-Gothic-Regular;writing-mode:lr-tb;fill:#000000;fill-opacity:1;fill-rule:nonzero;stroke:none"
             id="text254"><tspan
               x="0 16.000031 32.000061"
               y="0"
               sodipodi:role="line"
               id="tspan252">テスト</tspan></text>
          <text
             xml:space="preserve"
             transform="translate(226,350)"
             style="font-variant:normal;font-weight:normal;font-size:16px;font-family:'Times New Roman';-inkscape-font-specification:TimesNewRomanPSMT;writing-mode:lr-tb;fill:#000000;fill-opacity:1;fill-rule:nonzero;stroke:none"
             id="text258"><tspan
               x="0 9.2109375 13.65625 26.101562 33.203125 37.648438 41.648438 49.648438 57.648438 62.09375 70.09375 78.09375 82.539062 90.539062"
               y="0"
               sodipodi:role="line"
               id="tspan256">Time: 19:54:12</tspan></text>
          <text
             xml:space="preserve"
             transform="translate(226,368)"
             style="font-variant:normal;font-weight:normal;font-size:16px;font-family:'Times New Roman';-inkscape-font-specification:TimesNewRomanPSMT;writing-mode:lr-tb;fill:#000000;fill-opacity:1;fill-rule:nonzero;stroke:none"
             id="text262"><tspan
               x="0 11.554688 19.554688 27.554688 34.65625 39.101562 46.203125 50.648438 54.648438 62.648438 70.648438 75.09375 83.09375 91.09375 95.539062 103.53906"
               y="0"
               sodipodi:role="line"
               id="tspan260">Update: 19:54:12</tspan></text>
          <path
             d="m 227,375 h 53 v 19 h -53 z"
             style="fill:#efefef;fill-opacity:1;fill-rule:nonzero;stroke:none"
             id="path264" />
          <path
             d="m 227.5,375.5 h 52 v 18 h -52 z"
             style="fill:none;stroke:#aa8888;stroke-width:1;stroke-linecap:butt;stroke-linejoin:miter;stroke-miterlimit:10;stroke-dasharray:none;stroke-opacity:1"
             id="path266" />
          <text
             xml:space="preserve"
             transform="translate(234,389)"
             style="font-variant:normal;font-weight:normal;font-size:13.33px;font-family:Arial;-inkscape-font-specification:ArialMT;writing-mode:lr-tb;fill:#000000;fill-opacity:1;fill-rule:nonzero;stroke:none"
             id="text270"><tspan
               x="0 9.6251526 17.037628 19.998718 27.411194 31.114182"
               y="0"
               sodipodi:role="line"
               id="tspan268">Delete</tspan></text>
          <path
             d="m 282,375 h 37 v 19 h -37 z"
             style="fill:#efefef;fill-opacity:1;fill-rule:nonzero;stroke:none"
             id="path272" />
          <path
             d="m 282.5,375.5 h 36 v 18 h -36 z"
             style="fill:none;stroke:#aa8888;stroke-width:1;stroke-linecap:butt;stroke-linejoin:miter;stroke-miterlimit:10;stroke-dasharray:none;stroke-opacity:1"
             id="path274" />
          <text
             xml:space="preserve"
             transform="translate(288.53125,389)"
             style="font-variant:normal;font-weight:normal;font-size:13.33px;font-family:Arial;-inkscape-font-specification:ArialMT;writing-mode:lr-tb;fill:#000000;fill-opacity:1;fill-rule:nonzero;stroke:none"
             id="text278"><tspan
               x="0 8.8897552 16.302231 19.263321"
               y="0"
               sodipodi:role="line"
               id="tspan276">Edit</tspan></text>
          <text
             xml:space="preserve"
             transform="translate(326.5,389)"
             style="font-variant:normal;font-weight:normal;font-size:16px;font-family:'DejaVu Sans';-inkscape-font-specification:DejaVuSans;writing-mode:lr-tb;fill:#000000;fill-opacity:1;fill-rule:nonzero;stroke:none"
             id="text282"><tspan
               x="0"
               y="0"
               id="tspan280">☆</tspan></text>
          <path
             d="M 392.5,397.79001 V 306.84 c -3e-5,-0.81028 0.12897,-1.61274 0.38696,-2.40744 0.25797,-0.79471 0.63999,-1.56635 1.14606,-2.31491 0.50607,-0.7486 1.12643,-1.45975 1.86115,-2.13346 0.73471,-0.67367 1.56958,-1.297 2.50466,-1.8699 0.93509,-0.57294 1.95243,-1.0845 3.05195,-1.53467 1.09951,-0.45016 2.26016,-0.83026 3.48193,-1.14032 1.22177,-0.31006 2.48114,-0.54413 3.77817,-0.70221 1.29699,-0.15805 2.60672,-0.23706 3.92913,-0.23709 h 146.20002 c 0.61786,0 1.21228,0.0688 1.7832,0.20624 0.57092,0.13754 1.07489,0.33337 1.51184,0.58749 0.43695,0.25409 0.77362,0.54715 1.01013,0.87918 0.23651,0.332 0.35474,0.67771 0.3548,1.03708 V 388.16 c 0,0.81028 -0.12903,1.61274 -0.38702,2.40738 -0.258,0.79468 -0.64002,1.56632 -1.14612,2.31488 -0.50604,0.74857 -1.12647,1.45972 -1.86115,2.1334 -0.73468,0.67373 -1.56952,1.29705 -2.50464,1.86999 -0.93512,0.57291 -1.95239,1.08447 -3.05194,1.53464 -1.09955,0.45016 -2.26019,0.83029 -3.48193,1.14035 -1.22174,0.31006 -2.48114,0.54413 -3.77808,0.70224 -1.29705,0.15808 -2.60675,0.23712 -3.92913,0.23712 H 397.16 c -0.61798,0 -1.21243,-0.0688 -1.78335,-0.2063 -0.57092,-0.13754 -1.07486,-0.33337 -1.51181,-0.58746 -0.43698,-0.25412 -0.77368,-0.54718 -1.01013,-0.87918 -0.23648,-0.332 -0.35474,-0.67771 -0.35471,-1.03705 z"
             style="fill:#ffeeee;fill-opacity:1;fill-rule:nonzero;stroke:none"
             id="path284" />
          <path
             d="M 392,397.79001 V 306.84 c -3e-5,-0.84311 0.13217,-1.6781 0.39655,-2.50498 0.2644,-0.8269 0.65591,-1.62982 1.17453,-2.40872 0.51861,-0.7789 1.15438,-1.51883 1.90734,-2.21985 0.75293,-0.70099 1.60856,-1.34955 2.56687,-1.94571 0.95828,-0.59616 2.00085,-1.12842 3.12768,-1.59683 1.12687,-0.46838 2.31632,-0.86389 3.56839,-1.18652 1.25208,-0.32267 2.54273,-0.5662 3.87195,-0.73066 1.32923,-0.16449 2.67145,-0.24673 4.0267,-0.24673 h 146.20002 c 0.6842,0 1.3424,0.0815 1.97461,0.24432 0.63214,0.16291 1.19018,0.39484 1.67401,0.69584 0.48382,0.30099 0.85663,0.6481 1.11847,1.04138 0.2619,0.39328 0.39282,0.80276 0.39288,1.22845 V 388.16 c -6e-5,0.84308 -0.13226,1.67807 -0.39667,2.50495 -0.26446,0.82687 -0.65594,1.62979 -1.17456,2.40869 -0.51861,0.77893 -1.15436,1.51889 -1.90735,2.21988 -0.75287,0.70099 -1.60846,1.34955 -2.56677,1.94571 -0.95831,0.59613 -2.00085,1.12838 -3.12775,1.5968 -1.12689,0.46835 -2.31634,0.86386 -3.56842,1.18652 -1.25207,0.32266 -2.54272,0.56623 -3.87188,0.73068 C 546.05737,400.91776 544.71515,401 543.35999,401 H 397.16 c -0.68429,-3e-5 -1.34253,-0.0815 -1.9747,-0.24438 -0.63217,-0.16291 -1.19018,-0.39484 -1.67398,-0.69584 -0.48385,-0.30102 -0.85672,-0.64816 -1.11856,-1.04138 -0.26187,-0.39328 -0.39279,-0.80276 -0.39276,-1.22839 z m 1,0 V 306.84 c 0,-0.77744 0.12576,-1.54743 0.37732,-2.30991 0.25156,-0.76248 0.62411,-1.50287 1.11761,-2.22113 0.4935,-0.71823 1.09851,-1.40054 1.81498,-2.04697 0.71646,-0.64639 1.53064,-1.24444 2.44253,-1.79416 0.91184,-0.54971 1.9039,-1.04055 2.97614,-1.47247 1.07223,-0.43191 2.20407,-0.7966 3.3955,-1.09411 1.19141,-0.29752 2.4195,-0.5221 3.6843,-0.67374 C 410.07321,295.07584 411.35043,295 412.64001,295 h 146.20002 c 0.55163,0 1.08227,0.0561 1.59192,0.16818 0.50958,0.11215 0.95947,0.27182 1.34961,0.47907 0.39007,0.20721 0.69061,0.44619 0.90173,0.71695 0.21112,0.27078 0.31665,0.5527 0.31671,0.84579 V 388.16 c 0,0.77741 -0.12579,1.54734 -0.37738,2.30982 -0.25165,0.76248 -0.62421,1.50284 -1.11768,2.22107 -0.49353,0.71823 -1.09851,1.40057 -1.81494,2.04699 -0.71649,0.64643 -1.53064,1.24451 -2.4425,1.79426 -0.91187,0.54971 -1.90393,1.04049 -2.97614,1.47241 -1.07226,0.43191 -2.2041,0.79663 -3.39551,1.09414 -1.19146,0.29749 -2.41955,0.52207 -3.68432,0.67377 -1.26483,0.15167 -2.54199,0.22751 -3.83154,0.22754 H 397.16 c -0.55166,-3e-5 -1.08233,-0.0562 -1.59201,-0.1683 -0.50967,-0.11216 -0.95953,-0.27182 -1.34958,-0.47901 -0.3901,-0.20724 -0.6907,-0.44626 -0.90179,-0.71698 -0.21112,-0.27078 -0.31665,-0.55267 -0.31662,-0.8457 z"
             style="fill:#ccaaaa;fill-opacity:1;fill-rule:evenodd;stroke:none"
             id="path286" />
          <text
             xml:space="preserve"
             transform="translate(398,314)"
             style="font-variant:normal;font-weight:normal;font-size:16px;font-family:'Times New Roman';-inkscape-font-specification:TimesNewRomanPSMT;writing-mode:lr-tb;fill:#000000;fill-opacity:1;fill-rule:nonzero;stroke:none"
             id="text290"><tspan
               x="0 8"
               y="0"
               sodipodi:role="line"
               id="tspan288">2 </tspan></text>
          <text
             xml:space="preserve"
             transform="translate(410,314)"
             style="font-variant:normal;font-weight:normal;font-size:16px;font-family:'VL Gothic';-inkscape-font-specification:VL-Gothic-Regular;writing-mode:lr-tb;fill:#000000;fill-opacity:1;fill-rule:nonzero;stroke:none"
             id="text294"><tspan
               x="0 16.000031"
               y="0"
               sodipodi:role="line"
               id="tspan292">筒井</tspan></text>
          <text
             xml:space="preserve"
             transform="translate(442.00006,314)"
             style="font-variant:normal;font-weight:normal;font-size:16px;font-family:'Times New Roman';-inkscape-font-specification:TimesNewRomanPSMT;writing-mode:lr-tb;fill:#000000;fill-opacity:1;fill-rule:nonzero;stroke:none"
             id="text298"><tspan
               x="0"
               y="0"
               id="tspan296">:</tspan></text>
          <text
             xml:space="preserve"
             transform="translate(398,332)"
             style="font-variant:normal;font-weight:normal;font-size:16px;font-family:'VL Gothic';-inkscape-font-specification:VL-Gothic-Regular;writing-mode:lr-tb;fill:#000000;fill-opacity:1;fill-rule:nonzero;stroke:none"
             id="text302"><tspan
               x="0 16.000031 32.000061"
               y="0"
               sodipodi:role="line"
               id="tspan300">テスト</tspan></text>
          <text
             xml:space="preserve"
             transform="translate(398,350)"
             style="font-variant:normal;font-weight:normal;font-size:16px;font-family:'Times New Roman';-inkscape-font-specification:TimesNewRomanPSMT;writing-mode:lr-tb;fill:#000000;fill-opacity:1;fill-rule:nonzero;stroke:none"
             id="text306"><tspan
               x="0 9.2109375 13.65625 26.101562 33.203125 37.648438 41.648438 49.648438 57.648438 62.09375 70.09375 78.09375 82.539062 89.945312"
               y="0"
               sodipodi:role="line"
               id="tspan304">Time: 19:54:11</tspan></text>
          <text
             xml:space="preserve"
             transform="translate(398,368)"
             style="font-variant:normal;font-weight:normal;font-size:16px;font-family:'Times New Roman';-inkscape-font-specification:TimesNewRomanPSMT;writing-mode:lr-tb;fill:#000000;fill-opacity:1;fill-rule:nonzero;stroke:none"
             id="text310"><tspan
               x="0 11.554688 19.554688 27.554688 34.65625 39.101562 46.203125 50.648438 54.648438 62.648438 70.648438 75.09375 83.09375 91.09375 95.539062 102.94531"
               y="0"
               sodipodi:role="line"
               id="tspan308">Update: 19:54:11</tspan></text>
          <path
             d="m 399,375 h 53 v 19 h -53 z"
             style="fill:#efefef;fill-opacity:1;fill-rule:nonzero;stroke:none"
             id="path312" />
          <path
             d="m 399.5,375.5 h 52 v 18 h -52 z"
             style="fill:none;stroke:#aa8888;stroke-width:1;stroke-linecap:butt;stroke-linejoin:miter;stroke-miterlimit:10;stroke-dasharray:none;stroke-opacity:1"
             id="path314" />
          <text
             xml:space="preserve"
             transform="translate(406,389)"
             style="font-variant:normal;font-weight:normal;font-size:13.33px;font-family:Arial;-inkscape-font-specification:ArialMT;writing-mode:lr-tb;fill:#000000;fill-opacity:1;fill-rule:nonzero;stroke:none"
             id="text318"><tspan
               x="0 9.6251526 17.037628 19.998718 27.411194 31.114182"
               y="0"
               sodipodi:role="line"
               id="tspan316">Delete</tspan></text>
          <path
             d="m 454,375 h 37 v 19 h -37 z"
             style="fill:#efefef;fill-opacity:1;fill-rule:nonzero;stroke:none"
             id="path320" />
          <path
             d="m 454.5,375.5 h 36 v 18 h -36 z"
             style="fill:none;stroke:#aa8888;stroke-width:1;stroke-linecap:butt;stroke-linejoin:miter;stroke-miterlimit:10;stroke-dasharray:none;stroke-opacity:1"
             id="path322" />
          <text
             xml:space="preserve"
             transform="translate(460.53125,389)"
             style="font-variant:normal;font-weight:normal;font-size:13.33px;font-family:Arial;-inkscape-font-specification:ArialMT;writing-mode:lr-tb;fill:#000000;fill-opacity:1;fill-rule:nonzero;stroke:none"
             id="text326"><tspan
               x="0 8.8897552 16.302231 19.263321"
               y="0"
               sodipodi:role="line"
               id="tspan324">Edit</tspan></text>
          <text
             xml:space="preserve"
             transform="translate(498.5,389)"
             style="font-variant:normal;font-weight:normal;font-size:16px;font-family:'DejaVu Sans';-inkscape-font-specification:DejaVuSans;writing-mode:lr-tb;fill:#000000;fill-opacity:1;fill-rule:nonzero;stroke:none"
             id="text330"><tspan
               x="0"
               y="0"
               id="tspan328">☆</tspan></text>
          <path
             d="M 48.5,504.79001 V 413.84 c 0,-0.81028 0.128994,-1.61274 0.386978,-2.40744 0.257988,-0.79471 0.640015,-1.56635 1.14608,-2.31491 0.506062,-0.7486 1.126442,-1.45975 1.861138,-2.13346 0.734691,-0.6737 1.569583,-1.29703 2.504669,-1.86993 0.935085,-0.57294 1.952396,-1.08451 3.051941,-1.53467 1.099544,-0.45013 2.260189,-0.83023 3.481941,-1.14032 1.221748,-0.31003 2.481121,-0.5441 3.778122,-0.70218 1.297005,-0.15805 2.60672,-0.23709 3.92913,-0.23709 H 214.84 c 0.61793,0 1.21237,0.0688 1.78329,0.20624 0.57091,0.13751 1.07485,0.33334 1.51181,0.58746 0.43694,0.25412 0.77365,0.54718 1.01015,0.87918 0.23649,0.332 0.35473,0.67771 0.35475,1.03711 V 495.16 c -2e-5,0.81025 -0.12901,1.61271 -0.38701,2.40738 -0.25798,0.79468 -0.64001,1.56632 -1.14609,2.31491 -0.50607,0.74857 -1.12645,1.45972 -1.86113,2.13343 -0.73469,0.67367 -1.56959,1.29699 -2.50467,1.86996 -0.93507,0.57291 -1.95239,1.08444 -3.05195,1.53458 -1.09953,0.45016 -2.26016,0.83029 -3.48192,1.14035 -1.22176,0.31006 -2.48112,0.54413 -3.77814,0.70224 -1.29698,0.15808 -2.60669,0.23712 -3.92909,0.23715 H 53.16 c -0.617958,-3e-5 -1.212395,-0.0688 -1.783306,-0.20636 -0.570919,-0.13751 -1.07486,-0.33331 -1.511814,-0.5874 -0.436963,-0.25412 -0.773686,-0.54718 -1.010167,-0.87918 -0.23648,-0.332 -0.354717,-0.67771 -0.354713,-1.03705 z"
             style="fill:#ffeeee;fill-opacity:1;fill-rule:nonzero;stroke:none"
             id="path332" />
          <path
             d="M 48,504.79001 V 413.84 c -4e-6,-0.84311 0.132191,-1.67813 0.396584,-2.50501 0.264392,-0.8269 0.655906,-1.62982 1.174533,-2.40872 0.518628,-0.7789 1.154408,-1.51883 1.907341,-2.21982 0.752934,-0.70102 1.608551,-1.34958 2.566853,-1.94574 0.958302,-0.59616 2.000874,-1.12842 3.127716,-1.5968 1.126843,-0.46841 2.316299,-0.86392 3.568378,-1.18655 1.252079,-0.32264 2.542721,-0.5662 3.871922,-0.73066 C 65.942528,401.08224 67.284752,401 68.639999,401 H 214.84 c 0.68425,0 1.34246,0.0815 1.97462,0.24432 0.63217,0.16291 1.19019,0.39484 1.67404,0.69584 0.48384,0.30099 0.85668,0.6481 1.11853,1.04135 0.26186,0.39328 0.39279,0.80276 0.39281,1.22848 V 495.16 c -2e-5,0.84305 -0.13222,1.67804 -0.39662,2.50492 -0.26441,0.82687 -0.65592,1.62976 -1.17455,2.40866 -0.51863,0.7789 -1.1544,1.51886 -1.90733,2.21985 -0.75293,0.70102 -1.60855,1.34961 -2.56685,1.94577 -0.95831,0.59613 -2.00088,1.12838 -3.12773,1.5968 -1.12685,0.46835 -2.3163,0.86386 -3.56836,1.18652 -1.25208,0.32266 -2.54271,0.56623 -3.87192,0.73068 -1.32919,0.16452 -2.6714,0.24677 -4.02664,0.2468 H 53.16 c -0.684265,-3e-5 -1.342484,-0.0815 -1.974655,-0.24442 -0.632168,-0.16293 -1.190174,-0.39486 -1.674019,-0.6958 -0.483845,-0.30102 -0.856697,-0.64816 -1.118553,-1.04141 C 48.13092,505.62509 47.999996,505.21564 48,504.79001 Z m 1,0 V 413.84 c -4e-6,-0.77744 0.125786,-1.5474 0.377369,-2.30988 0.251587,-0.76248 0.62413,-1.50287 1.11763,-2.2211 0.493504,-0.71826 1.09848,-1.4006 1.814934,-2.047 0.716449,-0.64642 1.530613,-1.24447 2.442486,-1.79419 0.911869,-0.54974 1.903926,-1.04055 2.976173,-1.47247 1.072246,-0.43191 2.204079,-0.7966 3.395496,-1.09411 1.191418,-0.29752 2.419525,-0.5221 3.68433,-0.67374 C 66.073219,402.07584 67.35041,402 68.639999,402 H 214.84 c 0.55162,0 1.08227,0.0561 1.59193,0.16821 0.50966,0.11215 0.95952,0.27182 1.34961,0.47907 0.39006,0.20721 0.69066,0.4462 0.90176,0.71695 0.21111,0.27075 0.31668,0.55267 0.3167,0.84576 V 495.16 c -2e-5,0.77741 -0.12582,1.54734 -0.37741,2.30982 -0.25159,0.76248 -0.62413,1.50284 -1.11763,2.2211 -0.4935,0.71823 -1.09848,1.40057 -1.81493,2.04696 -0.71644,0.6464 -1.53061,1.24448 -2.44247,1.79422 -0.91188,0.54972 -1.90395,1.04056 -2.9762,1.47248 -1.07225,0.43191 -2.20407,0.7966 -3.39549,1.09411 -1.19142,0.29752 -2.41953,0.5221 -3.68431,0.6738 C 201.92676,506.92416 200.64957,507 199.36,507 H 53.16 c -0.551655,0 -1.08231,-0.0561 -1.591969,-0.16821 -0.509662,-0.11219 -0.959526,-0.27188 -1.349598,-0.47907 -0.390079,-0.20724 -0.690673,-0.44626 -0.901779,-0.71704 C 49.105549,505.36493 48.999996,505.08304 49,504.79001 Z"
             style="fill:#ccaaaa;fill-opacity:1;fill-rule:evenodd;stroke:none"
             id="path334" />
          <text
             xml:space="preserve"
             transform="translate(54,421)"
             style="font-variant:normal;font-weight:normal;font-size:16px;font-family:'Times New Roman';-inkscape-font-specification:TimesNewRomanPSMT;writing-mode:lr-tb;fill:#000000;fill-opacity:1;fill-rule:nonzero;stroke:none"
             id="text338"><tspan
               x="0 8"
               y="0"
               sodipodi:role="line"
               id="tspan336">1 </tspan></text>
          <text
             xml:space="preserve"
             transform="translate(66,421)"
             style="font-variant:normal;font-weight:normal;font-size:16px;font-family:'VL Gothic';-inkscape-font-specification:VL-Gothic-Regular;writing-mode:lr-tb;fill:#000000;fill-opacity:1;fill-rule:nonzero;stroke:none"
             id="text342"><tspan
               x="0 16.000031"
               y="0"
               sodipodi:role="line"
               id="tspan340">筒井</tspan></text>
          <text
             xml:space="preserve"
             transform="translate(98.000061,421)"
             style="font-variant:normal;font-weight:normal;font-size:16px;font-family:'Times New Roman';-inkscape-font-specification:TimesNewRomanPSMT;writing-mode:lr-tb;fill:#000000;fill-opacity:1;fill-rule:nonzero;stroke:none"
             id="text346"><tspan
               x="0"
               y="0"
               id="tspan344">:</tspan></text>
          <text
             xml:space="preserve"
             transform="translate(54,439)"
             style="font-variant:normal;font-weight:normal;font-size:16px;font-family:'VL Gothic';-inkscape-font-specification:VL-Gothic-Regular;writing-mode:lr-tb;fill:#000000;fill-opacity:1;fill-rule:nonzero;stroke:none"
             id="text350"><tspan
               x="0 16.000031 32.000061"
               y="0"
               sodipodi:role="line"
               id="tspan348">テスト</tspan></text>
          <text
             xml:space="preserve"
             transform="translate(54,457)"
             style="font-variant:normal;font-weight:normal;font-size:16px;font-family:'Times New Roman';-inkscape-font-specification:TimesNewRomanPSMT;writing-mode:lr-tb;fill:#000000;fill-opacity:1;fill-rule:nonzero;stroke:none"
             id="text354"><tspan
               x="0 9.2109375 13.65625 26.101562 33.203125 37.648438 41.648438 49.648438 57.648438 62.09375 70.09375 78.09375 82.539062 90.539062"
               y="0"
               sodipodi:role="line"
               id="tspan352">Time: 19:54:10</tspan></text>
          <text
             xml:space="preserve"
             transform="translate(54,475)"
             style="font-variant:normal;font-weight:normal;font-size:16px;font-family:'Times New Roman';-inkscape-font-specification:TimesNewRomanPSMT;writing-mode:lr-tb;fill:#000000;fill-opacity:1;fill-rule:nonzero;stroke:none"
             id="text358"><tspan
               x="0 11.554688 19.554688 27.554688 34.65625 39.101562 46.203125 50.648438 54.648438 62.648438 70.648438 75.09375 83.09375 91.09375 95.539062 103.53906"
               y="0"
               sodipodi:role="line"
               id="tspan356">Update: 19:54:10</tspan></text>
          <path
             d="m 55,482 h 53 v 19 H 55 Z"
             style="fill:#efefef;fill-opacity:1;fill-rule:nonzero;stroke:none"
             id="path360" />
          <path
             d="m 55.5,482.5 h 52 v 18 h -52 z"
             style="fill:none;stroke:#aa8888;stroke-width:1;stroke-linecap:butt;stroke-linejoin:miter;stroke-miterlimit:10;stroke-dasharray:none;stroke-opacity:1"
             id="path362" />
          <text
             xml:space="preserve"
             transform="translate(62,496)"
             style="font-variant:normal;font-weight:normal;font-size:13.33px;font-family:Arial;-inkscape-font-specification:ArialMT;writing-mode:lr-tb;fill:#000000;fill-opacity:1;fill-rule:nonzero;stroke:none"
             id="text366"><tspan
               x="0 9.6251526 17.037628 19.998718 27.411194 31.114182"
               y="0"
               sodipodi:role="line"
               id="tspan364">Delete</tspan></text>
          <path
             d="m 110,482 h 37 v 19 h -37 z"
             style="fill:#efefef;fill-opacity:1;fill-rule:nonzero;stroke:none"
             id="path368" />
          <path
             d="m 110.5,482.5 h 36 v 18 h -36 z"
             style="fill:none;stroke:#aa8888;stroke-width:1;stroke-linecap:butt;stroke-linejoin:miter;stroke-miterlimit:10;stroke-dasharray:none;stroke-opacity:1"
             id="path370" />
          <text
             xml:space="preserve"
             transform="translate(116.53125,496)"
             style="font-variant:normal;font-weight:normal;font-size:13.33px;font-family:Arial;-inkscape-font-specification:ArialMT;writing-mode:lr-tb;fill:#000000;fill-opacity:1;fill-rule:nonzero;stroke:none"
             id="text374"><tspan
               x="0 8.8897552 16.302231 19.263321"
               y="0"
               sodipodi:role="line"
               id="tspan372">Edit</tspan></text>
          <text
             xml:space="preserve"
             transform="translate(154.5,496)"
             style="font-variant:normal;font-weight:normal;font-size:16px;font-family:'DejaVu Sans';-inkscape-font-specification:DejaVuSans;writing-mode:lr-tb;fill:#000000;fill-opacity:1;fill-rule:nonzero;stroke:none"
             id="text378"><tspan
               x="0"
               y="0"
               id="tspan376">☆</tspan></text>
        </g>
      </g>
    </g>
  </g>
</svg>
