<?xml version="1.0" encoding="UTF-8" standalone="no"?>
<!-- Created with Inkscape (http://www.inkscape.org/) -->

<svg
   version="1.1"
   id="svg2"
   width="509.87741"
   height="262.53839"
   viewBox="0 0 509.87741 262.5384"
   sodipodi:docname="sec04_client.svg"
   inkscape:version="1.2.2 (b0a8486541, 2022-12-01)"
   xmlns:inkscape="http://www.inkscape.org/namespaces/inkscape"
   xmlns:sodipodi="http://sodipodi.sourceforge.net/DTD/sodipodi-0.dtd"
   xmlns="http://www.w3.org/2000/svg"
   xmlns:svg="http://www.w3.org/2000/svg">
  <defs
     id="defs6">
    <clipPath
       clipPathUnits="userSpaceOnUse"
       id="clipPath18">
      <path
         d="M 116.66667,116.66667 H 2361.3544 V 3389.1669 H 116.66667 Z"
         clip-rule="evenodd"
         id="path16" />
    </clipPath>
    <clipPath
       clipPathUnits="userSpaceOnUse"
       id="clipPath36">
      <path
         d="m 281.66669,381.35419 h 694.37506 v 72.1875 H 281.66669 Z"
         clip-rule="evenodd"
         id="path34" />
    </clipPath>
    <clipPath
       clipPathUnits="userSpaceOnUse"
       id="clipPath50">
      <path
         d="M 116.66667,116.66667 H 2361.3544 V 3389.1669 H 116.66667 Z"
         clip-rule="evenodd"
         id="path48" />
    </clipPath>
    <clipPath
       clipPathUnits="userSpaceOnUse"
       id="clipPath64">
      <path
         d="m 986.35425,381.35419 h 752.81245 v 72.1875 H 986.35425 Z"
         clip-rule="evenodd"
         id="path62" />
    </clipPath>
    <clipPath
       clipPathUnits="userSpaceOnUse"
       id="clipPath78">
      <path
         d="M 116.66667,116.66667 H 2361.3544 V 3389.1669 H 116.66667 Z"
         clip-rule="evenodd"
         id="path76" />
    </clipPath>
  </defs>
  <sodipodi:namedview
     id="namedview4"
     pagecolor="#ffffff"
     bordercolor="#666666"
     borderopacity="1.0"
     inkscape:showpageshadow="2"
     inkscape:pageopacity="0.0"
     inkscape:pagecheckerboard="0"
     inkscape:deskcolor="#d1d1d1"
     showgrid="false"
     inkscape:zoom="1.1892617"
     inkscape:cx="-151.77484"
     inkscape:cy="69.791199"
     inkscape:window-width="1920"
     inkscape:window-height="1011"
     inkscape:window-x="0"
     inkscape:window-y="32"
     inkscape:window-maximized="1"
     inkscape:current-layer="g10">
    <inkscape:page
       x="0"
       y="0"
       id="page8"
       width="509.87741"
       height="262.53839" />
  </sodipodi:namedview>
  <g
     id="g10"
     inkscape:groupmode="layer"
     inkscape:label="Page 1"
     transform="matrix(0.31999998,0,0,0.31999998,-46.655896,-62.994931)">
    <g
       id="g12">
      <g
         id="g14"
         clip-path="url(#clipPath18)">
        <g
           id="g20"
           transform="matrix(3.4375002,0,0,3.4375002,116.66667,116.66667)">
          <text
             xml:space="preserve"
             transform="translate(8,36)"
             style="font-variant:normal;font-weight:bold;font-size:18.71px;font-family:'Times New Roman';-inkscape-font-specification:TimesNewRomanPS-BoldMT;writing-mode:lr-tb;fill:#000000;fill-opacity:1;fill-rule:nonzero;stroke:none"
             id="text24"><tspan
               x="0 11.424622 25.972519 36.374313"
               y="0"
               sodipodi:role="line"
               id="tspan22">POST</tspan></text>
          <text
             xml:space="preserve"
             transform="translate(48,73)"
             style="font-variant:normal;font-weight:normal;font-size:16px;font-family:'Times New Roman';-inkscape-font-specification:TimesNewRomanPSMT;writing-mode:lr-tb;fill:#000000;fill-opacity:1;fill-rule:nonzero;stroke:none"
             id="text28"><tspan
               x="0 11.554688 18.65625 31.101562 38.203125"
               y="0"
               sodipodi:role="line"
               id="tspan26">Name:</tspan></text>
        </g>
      </g>
    </g>
    <g
       id="g30">
      <g
         id="g32"
         clip-path="url(#clipPath36)">
        <g
           id="g38"
           transform="matrix(3.4375002,0,0,3.4375002,116.66667,116.66667)">
          <path
             d="m 48.5,95.5 v -16 c -4e-6,-0.265221 0.05074,-0.520348 0.152233,-0.765373 0.101494,-0.245033 0.24601,-0.461312 0.433548,-0.648842 0.187534,-0.187538 0.403816,-0.332054 0.648846,-0.433556 C 49.979656,77.550743 50.234779,77.5 50.5,77.5 h 197 c 0.2652,0 0.52031,0.05074 0.76534,0.152229 0.24502,0.101502 0.46131,0.246018 0.64886,0.433556 0.18753,0.18753 0.33205,0.403809 0.43355,0.648842 0.10148,0.245025 0.15223,0.500152 0.15225,0.765373 v 16 c -2e-5,0.265205 -0.0508,0.520325 -0.15227,0.765343 -0.10148,0.245033 -0.246,0.461319 -0.43353,0.648857 -0.18755,0.18753 -0.40384,0.332046 -0.64885,0.43354 C 248.02031,97.449234 247.7652,97.499992 247.5,97.5 h -197 c -0.265221,-8e-6 -0.520344,-0.05077 -0.765373,-0.15226 C 49.489597,97.246246 49.273315,97.10173 49.085781,96.9142 48.898243,96.726662 48.753727,96.510384 48.652233,96.26535 48.550739,96.020325 48.499996,95.765205 48.5,95.5 Z"
             style="fill:#ffffff;fill-opacity:1;fill-rule:nonzero;stroke:none"
             id="path40" />
          <path
             d="m 48.5,95.5 v -16 c -4e-6,-0.265221 0.05074,-0.520348 0.152233,-0.765373 0.101494,-0.245033 0.24601,-0.461312 0.433548,-0.648842 0.187534,-0.187538 0.403816,-0.332054 0.648846,-0.433556 C 49.979656,77.550743 50.234779,77.5 50.5,77.5 h 197 c 0.2652,0 0.52031,0.05074 0.76534,0.152229 0.24502,0.101502 0.46131,0.246018 0.64886,0.433556 0.18753,0.18753 0.33205,0.403809 0.43355,0.648842 0.10148,0.245025 0.15223,0.500152 0.15225,0.765373 v 16 c -2e-5,0.265205 -0.0508,0.520325 -0.15227,0.765343 -0.10148,0.245033 -0.246,0.461319 -0.43353,0.648857 -0.18755,0.18753 -0.40384,0.332046 -0.64885,0.43354 C 248.02031,97.449234 247.7652,97.499992 247.5,97.5 h -197 c -0.265221,-8e-6 -0.520344,-0.05077 -0.765373,-0.15226 C 49.489597,97.246246 49.273315,97.10173 49.085781,96.9142 48.898243,96.726662 48.753727,96.510384 48.652233,96.26535 48.550739,96.020325 48.499996,95.765205 48.5,95.5 Z"
             style="fill:none;stroke:#767676;stroke-width:1;stroke-linecap:butt;stroke-linejoin:miter;stroke-miterlimit:10;stroke-dasharray:none;stroke-opacity:0.825"
             id="path42" />
        </g>
      </g>
    </g>
    <g
       id="g44">
      <g
         id="g46"
         clip-path="url(#clipPath50)">
        <g
           id="g52"
           transform="matrix(3.4375002,0,0,3.4375002,116.66667,116.66667)">
          <text
             xml:space="preserve"
             transform="translate(252.65625,73)"
             style="font-variant:normal;font-weight:normal;font-size:16px;font-family:'Times New Roman';-inkscape-font-specification:TimesNewRomanPSMT;writing-mode:lr-tb;fill:#000000;fill-opacity:1;fill-rule:nonzero;stroke:none"
             id="text56"><tspan
               x="0 14.226562 21.328125 27.554688 33.78125 40.882812 48.882812 55.984375"
               y="0"
               sodipodi:role="line"
               id="tspan54">Message:</tspan></text>
        </g>
      </g>
    </g>
    <g
       id="g58">
      <g
         id="g60"
         clip-path="url(#clipPath64)">
        <g
           id="g66"
           transform="matrix(3.4375002,0,0,3.4375002,116.66667,116.66667)">
          <path
             d="m 253.5,95.5 v -16 c 0,-0.265221 0.0507,-0.520348 0.15224,-0.765373 0.10148,-0.245033 0.246,-0.461312 0.43354,-0.648842 0.18752,-0.187538 0.4038,-0.332054 0.64882,-0.433556 C 254.97964,77.550743 255.23477,77.5 255.5,77.5 h 214 c 0.2652,0 0.52032,0.05074 0.76535,0.152229 0.24503,0.101502 0.4613,0.246018 0.64887,0.433556 0.18753,0.18753 0.33203,0.403809 0.43353,0.648842 C 471.44925,78.979652 471.5,79.234779 471.5,79.5 v 16 c 0,0.265205 -0.0507,0.520325 -0.15225,0.765343 -0.1015,0.245033 -0.246,0.461319 -0.43353,0.648857 -0.18757,0.18753 -0.40384,0.332046 -0.64887,0.43354 C 470.02032,97.449234 469.7652,97.499992 469.5,97.5 h -214 c -0.26523,-8e-6 -0.52036,-0.05077 -0.7654,-0.15226 -0.24502,-0.101494 -0.4613,-0.24601 -0.64882,-0.43354 -0.18754,-0.187538 -0.33207,-0.403816 -0.43356,-0.64885 C 253.55074,96.020325 253.5,95.765205 253.5,95.5 Z"
             style="fill:#ffffff;fill-opacity:1;fill-rule:nonzero;stroke:none"
             id="path68" />
          <path
             d="m 253.5,95.5 v -16 c 0,-0.265221 0.0507,-0.520348 0.15224,-0.765373 0.10148,-0.245033 0.246,-0.461312 0.43354,-0.648842 0.18752,-0.187538 0.4038,-0.332054 0.64882,-0.433556 C 254.97964,77.550743 255.23477,77.5 255.5,77.5 h 214 c 0.2652,0 0.52032,0.05074 0.76535,0.152229 0.24503,0.101502 0.4613,0.246018 0.64887,0.433556 0.18753,0.18753 0.33203,0.403809 0.43353,0.648842 C 471.44925,78.979652 471.5,79.234779 471.5,79.5 v 16 c 0,0.265205 -0.0507,0.520325 -0.15225,0.765343 -0.1015,0.245033 -0.246,0.461319 -0.43353,0.648857 -0.18757,0.18753 -0.40384,0.332046 -0.64887,0.43354 C 470.02032,97.449234 469.7652,97.499992 469.5,97.5 h -214 c -0.26523,-8e-6 -0.52036,-0.05077 -0.7654,-0.15226 -0.24502,-0.101494 -0.4613,-0.24601 -0.64882,-0.43354 -0.18754,-0.187538 -0.33207,-0.403816 -0.43356,-0.64885 C 253.55074,96.020325 253.5,95.765205 253.5,95.5 Z"
             style="fill:none;stroke:#767676;stroke-width:1;stroke-linecap:butt;stroke-linejoin:miter;stroke-miterlimit:10;stroke-dasharray:none;stroke-opacity:0.825"
             id="path70" />
        </g>
      </g>
    </g>
    <g
       id="g72">
      <g
         id="g74"
         clip-path="url(#clipPath78)">
        <g
           id="g80"
           transform="matrix(3.4375002,0,0,3.4375002,116.66667,116.66667)">
          <path
             d="m 9,115 h 50 v 19 H 9 Z"
             style="fill:#efefef;fill-opacity:1;fill-rule:nonzero;stroke:none"
             id="path82" />
          <path
             d="m 9.5,115.5 h 49 v 18 h -49 z"
             style="fill:none;stroke:#aa8888;stroke-width:1;stroke-linecap:butt;stroke-linejoin:miter;stroke-miterlimit:10;stroke-dasharray:none;stroke-opacity:1"
             id="path84" />
          <text
             xml:space="preserve"
             transform="translate(16,129)"
             style="font-variant:normal;font-weight:normal;font-size:13.33px;font-family:Arial;-inkscape-font-specification:ArialMT;writing-mode:lr-tb;fill:#000000;fill-opacity:1;fill-rule:nonzero;stroke:none"
             id="text88"><tspan
               x="0 8.8897552 19.256805 28.146561"
               y="0"
               sodipodi:role="line"
               id="tspan86">POST</tspan></text>
          <path
             d="m 65,115 h 46 v 19 H 65 Z"
             style="fill:#efefef;fill-opacity:1;fill-rule:nonzero;stroke:none"
             id="path90" />
          <path
             d="m 65.5,115.5 h 45 v 18 h -45 z"
             style="fill:none;stroke:#aa8888;stroke-width:1;stroke-linecap:butt;stroke-linejoin:miter;stroke-miterlimit:10;stroke-dasharray:none;stroke-opacity:1"
             id="path92" />
          <text
             xml:space="preserve"
             transform="translate(72.296875,129)"
             style="font-variant:normal;font-weight:normal;font-size:13.33px;font-family:Arial;-inkscape-font-specification:ArialMT;writing-mode:lr-tb;fill:#000000;fill-opacity:1;fill-rule:nonzero;stroke:none"
             id="text96"><tspan
               x="0 9.6251526 12.586243 19.998718 27.411194"
               y="0"
               sodipodi:role="line"
               id="tspan94">Clear</tspan></text>
          <text
             xml:space="preserve"
             transform="translate(8,171)"
             style="font-variant:normal;font-weight:bold;font-size:18.71px;font-family:'Times New Roman';-inkscape-font-specification:TimesNewRomanPS-BoldMT;writing-mode:lr-tb;fill:#000000;fill-opacity:1;fill-rule:nonzero;stroke:none"
             id="text100"><tspan
               x="0 14.547897 27.022736"
               y="0"
               sodipodi:role="line"
               id="tspan98">GET</tspan></text>
          <path
             d="m 9,196 h 41 v 19 H 9 Z"
             style="fill:#efefef;fill-opacity:1;fill-rule:nonzero;stroke:none"
             id="path102" />
          <path
             d="m 9.5,196.5 h 40 v 18 h -40 z"
             style="fill:none;stroke:#aa8888;stroke-width:1;stroke-linecap:butt;stroke-linejoin:miter;stroke-miterlimit:10;stroke-dasharray:none;stroke-opacity:1"
             id="path104" />
          <text
             xml:space="preserve"
             transform="translate(16,210)"
             style="font-variant:normal;font-weight:normal;font-size:13.33px;font-family:Arial;-inkscape-font-specification:ArialMT;writing-mode:lr-tb;fill:#000000;fill-opacity:1;fill-rule:nonzero;stroke:none"
             id="text108"><tspan
               x="0 10.36705 19.256805"
               y="0"
               sodipodi:role="line"
               id="tspan106">GET</tspan></text>
          <path
             d="m 56,196 h 46 v 19 H 56 Z"
             style="fill:#efefef;fill-opacity:1;fill-rule:nonzero;stroke:none"
             id="path110" />
          <path
             d="m 56.5,196.5 h 45 v 18 h -45 z"
             style="fill:none;stroke:#aa8888;stroke-width:1;stroke-linecap:butt;stroke-linejoin:miter;stroke-miterlimit:10;stroke-dasharray:none;stroke-opacity:1"
             id="path112" />
          <text
             xml:space="preserve"
             transform="translate(63.40625,210)"
             style="font-variant:normal;font-weight:normal;font-size:13.33px;font-family:Arial;-inkscape-font-specification:ArialMT;writing-mode:lr-tb;fill:#000000;fill-opacity:1;fill-rule:nonzero;stroke:none"
             id="text116"><tspan
               x="0 9.6251526 12.586243 19.998718 27.411194"
               y="0"
               sodipodi:role="line"
               id="tspan114">Clear</tspan></text>
          <path
             d="m 48.5,261.10001 v -25.5 c 0,-0.20356 0.128994,-0.40516 0.386978,-0.60482 0.257988,-0.19963 0.640015,-0.39347 1.14608,-0.58154 0.506062,-0.18806 1.126442,-0.36671 1.861138,-0.53595 0.734691,-0.16923 1.569583,-0.32582 2.504669,-0.46974 0.935085,-0.14394 1.952396,-0.27246 3.051941,-0.38554 1.099544,-0.11309 2.260189,-0.20858 3.481941,-0.28646 1.221748,-0.0779 2.481121,-0.13669 3.778122,-0.17639 1.297005,-0.0397 2.60672,-0.0596 3.92913,-0.0596 H 214.84 c 0.61793,0 1.21237,0.0102 1.78329,0.0304 0.57091,0.0203 1.07485,0.0492 1.51181,0.0867 0.43694,0.0375 0.77365,0.0807 1.01015,0.12974 0.23649,0.049 0.35473,0.10004 0.35475,0.15309 v 25.5 c -2e-5,0.20356 -0.12901,0.40516 -0.38701,0.60477 -0.25798,0.19962 -0.64001,0.39346 -1.14609,0.58151 -0.50607,0.18805 -1.12645,0.3667 -1.86113,0.53598 -0.73469,0.16922 -1.56959,0.32581 -2.50467,0.46976 -0.93507,0.14395 -1.95239,0.27246 -3.05195,0.38553 -1.09953,0.1131 -2.26016,0.20859 -3.48192,0.28647 -1.22176,0.0779 -2.48112,0.13672 -3.77814,0.17642 -1.29698,0.0397 -2.60669,0.0596 -3.92909,0.0596 H 53.16 c -0.617958,-3e-5 -1.212395,-0.0102 -1.783306,-0.0305 -0.570919,-0.0203 -1.07486,-0.0492 -1.511814,-0.0867 -0.436963,-0.0375 -0.773686,-0.0808 -1.010167,-0.12979 -0.23648,-0.049 -0.354717,-0.10003 -0.354713,-0.15304 z"
             style="fill:#ffeeee;fill-opacity:1;fill-rule:nonzero;stroke:none"
             id="path118" />
          <path
             d="m 48,261.10001 v -25.5 c -4e-6,-0.23638 0.132191,-0.47049 0.396584,-0.70235 0.264392,-0.23184 0.655906,-0.45696 1.174533,-0.67535 0.518628,-0.2184 1.154408,-0.42586 1.907341,-0.6224 0.752934,-0.19654 1.608551,-0.37838 2.566853,-0.54551 0.958302,-0.16716 2.000874,-0.31639 3.127716,-0.44773 1.126843,-0.13133 2.316299,-0.24221 3.568378,-0.33267 1.252079,-0.0905 2.542721,-0.15874 3.871922,-0.20483 C 65.942528,232.02306 67.284752,232 68.639999,232 H 214.84 c 0.68425,0 1.34246,0.0228 1.97462,0.0685 0.63217,0.0457 1.19019,0.1107 1.67404,0.1951 0.48384,0.0844 0.85668,0.1817 1.11853,0.29197 0.26186,0.11025 0.39279,0.22505 0.39281,0.34442 v 25.5 c -2e-5,0.23636 -0.13222,0.47046 -0.39662,0.7023 -0.26441,0.23185 -0.65592,0.45694 -1.17455,0.67533 -0.51863,0.21841 -1.1544,0.42587 -1.90733,0.62237 -0.75293,0.19657 -1.60855,0.37842 -2.56685,0.54557 -0.95831,0.16714 -2.00088,0.31637 -3.12773,0.44769 -1.12685,0.13132 -2.3163,0.24219 -3.56836,0.33267 -1.25208,0.0905 -2.54271,0.15875 -3.87192,0.20487 -1.32919,0.0461 -2.6714,0.0692 -4.02664,0.0692 H 53.16 c -0.684265,-3e-5 -1.342484,-0.0229 -1.974655,-0.0686 -0.632168,-0.0457 -1.190174,-0.11069 -1.674019,-0.19507 -0.483845,-0.0844 -0.856697,-0.1817 -1.118553,-0.29196 C 48.13092,261.33414 47.999996,261.21933 48,261.10001 Z M 49,261 v -25.39999 c -4e-6,-0.17073 0.125786,-0.33982 0.377369,-0.50725 0.251587,-0.16744 0.62413,-0.33002 1.11763,-0.48775 0.493504,-0.15773 1.09848,-0.30756 1.814934,-0.44951 0.716449,-0.14195 1.530613,-0.27328 2.442486,-0.39399 0.911869,-0.12073 1.903926,-0.22852 2.976173,-0.32335 1.072246,-0.0949 2.204079,-0.17495 3.395496,-0.24027 1.191418,-0.0653 2.419525,-0.11464 3.68433,-0.14795 C 66.073219,233.01665 67.35041,233 68.639999,233 H 219 v 25.39999 c -2e-5,0.17072 -0.12582,0.33979 -0.37741,0.50721 -0.25159,0.16742 -0.62413,0.32998 -1.11763,0.48773 -0.4935,0.15771 -1.09848,0.30755 -1.81493,0.44949 -0.71644,0.14197 -1.53061,0.27332 -2.44247,0.39404 -0.91188,0.1207 -1.90395,0.22849 -2.9762,0.32331 -1.07225,0.0948 -2.20407,0.17495 -3.39549,0.24029 -1.19142,0.0653 -2.41953,0.11466 -3.68431,0.14798 -1.2648,0.0333 -2.54199,0.0499 -3.83156,0.05 z"
             style="fill:#ccaaaa;fill-opacity:1;fill-rule:evenodd;stroke:none"
             id="path120" />
          <text
             xml:space="preserve"
             transform="translate(54,252)"
             style="font-variant:normal;font-weight:normal;font-size:16px;font-family:'VL Gothic';-inkscape-font-specification:VL-Gothic-Regular;writing-mode:lr-tb;fill:#000000;fill-opacity:1;fill-rule:nonzero;stroke:none"
             id="text124"><tspan
               x="0 16.000031 32.000061 48.000092 64.000122 80.000153 96.000183 112.00021 128.00024"
               y="0"
               sodipodi:role="line"
               id="tspan122">ここにはなにもない</tspan></text>
        </g>
      </g>
    </g>
  </g>
</svg>
