<?xml version="1.0" encoding="UTF-8" standalone="no"?>
<!-- Created with Inkscape (http://www.inkscape.org/) -->

<svg
   version="1.1"
   id="svg2"
   width="611.07745"
   height="425.33841"
   viewBox="0 0 611.07745 425.33843"
   sodipodi:docname="sec04_client2.svg"
   inkscape:version="1.2.2 (b0a8486541, 2022-12-01)"
   xmlns:inkscape="http://www.inkscape.org/namespaces/inkscape"
   xmlns:sodipodi="http://sodipodi.sourceforge.net/DTD/sodipodi-0.dtd"
   xmlns="http://www.w3.org/2000/svg"
   xmlns:svg="http://www.w3.org/2000/svg">
  <defs
     id="defs6">
    <clipPath
       clipPathUnits="userSpaceOnUse"
       id="clipPath18">
      <path
         d="M 116.66667,116.66667 H 2361.3544 V 3389.1669 H 116.66667 Z"
         clip-rule="evenodd"
         id="path16" />
    </clipPath>
    <clipPath
       clipPathUnits="userSpaceOnUse"
       id="clipPath36">
      <path
         d="m 281.66669,381.35419 h 694.37506 v 72.1875 H 281.66669 Z"
         clip-rule="evenodd"
         id="path34" />
    </clipPath>
    <clipPath
       clipPathUnits="userSpaceOnUse"
       id="clipPath50">
      <path
         d="m 295.41669,391.66669 h 666.87506 v 51.5625 H 295.41669 Z"
         clip-rule="evenodd"
         id="path48" />
    </clipPath>
    <clipPath
       clipPathUnits="userSpaceOnUse"
       id="clipPath64">
      <path
         d="M 116.66667,116.66667 H 2361.3544 V 3389.1669 H 116.66667 Z"
         clip-rule="evenodd"
         id="path62" />
    </clipPath>
    <clipPath
       clipPathUnits="userSpaceOnUse"
       id="clipPath78">
      <path
         d="m 986.35425,381.35419 h 752.81245 v 72.1875 H 986.35425 Z"
         clip-rule="evenodd"
         id="path76" />
    </clipPath>
    <clipPath
       clipPathUnits="userSpaceOnUse"
       id="clipPath92">
      <path
         d="m 1000.1042,391.66669 h 725.3125 v 51.5625 h -725.3125 z"
         clip-rule="evenodd"
         id="path90" />
    </clipPath>
    <clipPath
       clipPathUnits="userSpaceOnUse"
       id="clipPath110">
      <path
         d="M 116.66667,116.66667 H 2361.3544 V 3389.1669 H 116.66667 Z"
         clip-rule="evenodd"
         id="path108" />
    </clipPath>
  </defs>
  <sodipodi:namedview
     id="namedview4"
     pagecolor="#ffffff"
     bordercolor="#666666"
     borderopacity="1.0"
     inkscape:showpageshadow="2"
     inkscape:pageopacity="0.0"
     inkscape:pagecheckerboard="0"
     inkscape:deskcolor="#d1d1d1"
     showgrid="false"
     inkscape:zoom="1.1892617"
     inkscape:cx="177.84143"
     inkscape:cy="261.50679"
     inkscape:window-width="1920"
     inkscape:window-height="1011"
     inkscape:window-x="0"
     inkscape:window-y="32"
     inkscape:window-maximized="1"
     inkscape:current-layer="g10">
    <inkscape:page
       x="0"
       y="0"
       id="page8"
       width="611.07745"
       height="425.33844" />
  </sodipodi:namedview>
  <g
     id="g10"
     inkscape:groupmode="layer"
     inkscape:label="Page 1"
     transform="matrix(0.31999998,0,0,0.31999998,-46.655896,-62.994931)">
    <g
       id="g12">
      <g
         id="g14"
         clip-path="url(#clipPath18)">
        <g
           id="g20"
           transform="matrix(3.4375002,0,0,3.4375002,116.66667,116.66667)">
          <text
             xml:space="preserve"
             transform="translate(8,36)"
             style="font-variant:normal;font-weight:bold;font-size:18.71px;font-family:'Times New Roman';-inkscape-font-specification:TimesNewRomanPS-BoldMT;writing-mode:lr-tb;fill:#000000;fill-opacity:1;fill-rule:nonzero;stroke:none"
             id="text24"><tspan
               x="0 11.424622 25.972519 36.374313"
               y="0"
               sodipodi:role="line"
               id="tspan22">POST</tspan></text>
          <text
             xml:space="preserve"
             transform="translate(48,73)"
             style="font-variant:normal;font-weight:normal;font-size:16px;font-family:'Times New Roman';-inkscape-font-specification:TimesNewRomanPSMT;writing-mode:lr-tb;fill:#000000;fill-opacity:1;fill-rule:nonzero;stroke:none"
             id="text28"><tspan
               x="0 11.554688 18.65625 31.101562 38.203125"
               y="0"
               sodipodi:role="line"
               id="tspan26">Name:</tspan></text>
        </g>
      </g>
    </g>
    <g
       id="g30">
      <g
         id="g32"
         clip-path="url(#clipPath36)">
        <g
           id="g38"
           transform="matrix(3.4375002,0,0,3.4375002,116.66667,116.66667)">
          <path
             d="m 48.5,95.5 v -16 c -4e-6,-0.265221 0.05074,-0.520348 0.152233,-0.765373 0.101494,-0.245033 0.24601,-0.461312 0.433548,-0.648842 0.187534,-0.187538 0.403816,-0.332054 0.648846,-0.433556 C 49.979656,77.550743 50.234779,77.5 50.5,77.5 h 197 c 0.2652,0 0.52031,0.05074 0.76534,0.152229 0.24502,0.101502 0.46131,0.246018 0.64886,0.433556 0.18753,0.18753 0.33205,0.403809 0.43355,0.648842 0.10148,0.245025 0.15223,0.500152 0.15225,0.765373 v 16 c -2e-5,0.265205 -0.0508,0.520325 -0.15227,0.765343 -0.10148,0.245033 -0.246,0.461319 -0.43353,0.648857 -0.18755,0.18753 -0.40384,0.332046 -0.64885,0.43354 C 248.02031,97.449234 247.7652,97.499992 247.5,97.5 h -197 c -0.265221,-8e-6 -0.520344,-0.05077 -0.765373,-0.15226 C 49.489597,97.246246 49.273315,97.10173 49.085781,96.9142 48.898243,96.726662 48.753727,96.510384 48.652233,96.26535 48.550739,96.020325 48.499996,95.765205 48.5,95.5 Z"
             style="fill:#e8f0fe;fill-opacity:1;fill-rule:nonzero;stroke:none"
             id="path40" />
          <path
             d="m 48.5,95.5 v -16 c -4e-6,-0.265221 0.05074,-0.520348 0.152233,-0.765373 0.101494,-0.245033 0.24601,-0.461312 0.433548,-0.648842 0.187534,-0.187538 0.403816,-0.332054 0.648846,-0.433556 C 49.979656,77.550743 50.234779,77.5 50.5,77.5 h 197 c 0.2652,0 0.52031,0.05074 0.76534,0.152229 0.24502,0.101502 0.46131,0.246018 0.64886,0.433556 0.18753,0.18753 0.33205,0.403809 0.43355,0.648842 0.10148,0.245025 0.15223,0.500152 0.15225,0.765373 v 16 c -2e-5,0.265205 -0.0508,0.520325 -0.15227,0.765343 -0.10148,0.245033 -0.246,0.461319 -0.43353,0.648857 -0.18755,0.18753 -0.40384,0.332046 -0.64885,0.43354 C 248.02031,97.449234 247.7652,97.499992 247.5,97.5 h -197 c -0.265221,-8e-6 -0.520344,-0.05077 -0.765373,-0.15226 C 49.489597,97.246246 49.273315,97.10173 49.085781,96.9142 48.898243,96.726662 48.753727,96.510384 48.652233,96.26535 48.550739,96.020325 48.499996,95.765205 48.5,95.5 Z"
             style="fill:none;stroke:#767676;stroke-width:1;stroke-linecap:butt;stroke-linejoin:miter;stroke-miterlimit:10;stroke-dasharray:none;stroke-opacity:0.825"
             id="path42" />
        </g>
      </g>
    </g>
    <g
       id="g44">
      <g
         id="g46"
         clip-path="url(#clipPath50)">
        <g
           id="g52"
           transform="matrix(3.4375002,0,0,3.4375002,295.41669,391.66669)">
          <text
             xml:space="preserve"
             transform="translate(0,12)"
             style="font-variant:normal;font-weight:normal;font-size:13.33px;font-family:'VL Gothic';-inkscape-font-specification:VL-Gothic-Regular;writing-mode:lr-tb;fill:#000000;fill-opacity:1;fill-rule:nonzero;stroke:none"
             id="text56"><tspan
               x="0 13.328079"
               y="0"
               sodipodi:role="line"
               id="tspan54">筒井</tspan></text>
        </g>
      </g>
    </g>
    <g
       id="g58">
      <g
         id="g60"
         clip-path="url(#clipPath64)">
        <g
           id="g66"
           transform="matrix(3.4375002,0,0,3.4375002,116.66667,116.66667)">
          <text
             xml:space="preserve"
             transform="translate(252.65625,73)"
             style="font-variant:normal;font-weight:normal;font-size:16px;font-family:'Times New Roman';-inkscape-font-specification:TimesNewRomanPSMT;writing-mode:lr-tb;fill:#000000;fill-opacity:1;fill-rule:nonzero;stroke:none"
             id="text70"><tspan
               x="0 14.226562 21.328125 27.554688 33.78125 40.882812 48.882812 55.984375"
               y="0"
               sodipodi:role="line"
               id="tspan68">Message:</tspan></text>
        </g>
      </g>
    </g>
    <g
       id="g72">
      <g
         id="g74"
         clip-path="url(#clipPath78)">
        <g
           id="g80"
           transform="matrix(3.4375002,0,0,3.4375002,116.66667,116.66667)">
          <path
             d="m 253.5,95.5 v -16 c 0,-0.265221 0.0507,-0.520348 0.15224,-0.765373 0.10148,-0.245033 0.246,-0.461312 0.43354,-0.648842 0.18752,-0.187538 0.4038,-0.332054 0.64882,-0.433556 C 254.97964,77.550743 255.23477,77.5 255.5,77.5 h 214 c 0.2652,0 0.52032,0.05074 0.76535,0.152229 0.24503,0.101502 0.4613,0.246018 0.64887,0.433556 0.18753,0.18753 0.33203,0.403809 0.43353,0.648842 C 471.44925,78.979652 471.5,79.234779 471.5,79.5 v 16 c 0,0.265205 -0.0507,0.520325 -0.15225,0.765343 -0.1015,0.245033 -0.246,0.461319 -0.43353,0.648857 -0.18757,0.18753 -0.40384,0.332046 -0.64887,0.43354 C 470.02032,97.449234 469.7652,97.499992 469.5,97.5 h -214 c -0.26523,-8e-6 -0.52036,-0.05077 -0.7654,-0.15226 -0.24502,-0.101494 -0.4613,-0.24601 -0.64882,-0.43354 -0.18754,-0.187538 -0.33207,-0.403816 -0.43356,-0.64885 C 253.55074,96.020325 253.5,95.765205 253.5,95.5 Z"
             style="fill:#ffffff;fill-opacity:1;fill-rule:nonzero;stroke:none"
             id="path82" />
          <path
             d="m 253.5,95.5 v -16 c 0,-0.265221 0.0507,-0.520348 0.15224,-0.765373 0.10148,-0.245033 0.246,-0.461312 0.43354,-0.648842 0.18752,-0.187538 0.4038,-0.332054 0.64882,-0.433556 C 254.97964,77.550743 255.23477,77.5 255.5,77.5 h 214 c 0.2652,0 0.52032,0.05074 0.76535,0.152229 0.24503,0.101502 0.4613,0.246018 0.64887,0.433556 0.18753,0.18753 0.33203,0.403809 0.43353,0.648842 C 471.44925,78.979652 471.5,79.234779 471.5,79.5 v 16 c 0,0.265205 -0.0507,0.520325 -0.15225,0.765343 -0.1015,0.245033 -0.246,0.461319 -0.43353,0.648857 -0.18757,0.18753 -0.40384,0.332046 -0.64887,0.43354 C 470.02032,97.449234 469.7652,97.499992 469.5,97.5 h -214 c -0.26523,-8e-6 -0.52036,-0.05077 -0.7654,-0.15226 -0.24502,-0.101494 -0.4613,-0.24601 -0.64882,-0.43354 -0.18754,-0.187538 -0.33207,-0.403816 -0.43356,-0.64885 C 253.55074,96.020325 253.5,95.765205 253.5,95.5 Z"
             style="fill:none;stroke:#767676;stroke-width:1;stroke-linecap:butt;stroke-linejoin:miter;stroke-miterlimit:10;stroke-dasharray:none;stroke-opacity:0.825"
             id="path84" />
        </g>
      </g>
    </g>
    <g
       id="g86">
      <g
         id="g88"
         clip-path="url(#clipPath92)">
        <g
           id="g94"
           transform="matrix(3.4375002,0,0,3.4375002,1000.1042,391.66669)">
          <text
             xml:space="preserve"
             transform="translate(-0.34375,12)"
             style="font-variant:normal;font-weight:normal;font-size:13.33px;font-family:'VL Gothic';-inkscape-font-specification:VL-Gothic-Regular;writing-mode:lr-tb;fill:#000000;fill-opacity:1;fill-rule:nonzero;stroke:none"
             id="text98"><tspan
               x="0 13.328079 26.656158"
               y="0"
               sodipodi:role="line"
               id="tspan96">テスト</tspan></text>
          <text
             xml:space="preserve"
             transform="translate(39.640488,12)"
             style="font-variant:normal;font-weight:normal;font-size:13.33px;font-family:Arial;-inkscape-font-specification:ArialMT;writing-mode:lr-tb;fill:#000000;fill-opacity:1;fill-rule:nonzero;stroke:none"
             id="text102"><tspan
               x="0"
               y="0"
               id="tspan100">3</tspan></text>
        </g>
      </g>
    </g>
    <g
       id="g104">
      <g
         id="g106"
         clip-path="url(#clipPath110)">
        <g
           id="g112"
           transform="matrix(3.4375002,0,0,3.4375002,116.66667,116.66667)">
          <path
             d="m 9,115 h 50 v 19 H 9 Z"
             style="fill:#efefef;fill-opacity:1;fill-rule:nonzero;stroke:none"
             id="path114" />
          <path
             d="m 9.5,115.5 h 49 v 18 h -49 z"
             style="fill:none;stroke:#aa8888;stroke-width:1;stroke-linecap:butt;stroke-linejoin:miter;stroke-miterlimit:10;stroke-dasharray:none;stroke-opacity:1"
             id="path116" />
          <text
             xml:space="preserve"
             transform="translate(16,129)"
             style="font-variant:normal;font-weight:normal;font-size:13.33px;font-family:Arial;-inkscape-font-specification:ArialMT;writing-mode:lr-tb;fill:#000000;fill-opacity:1;fill-rule:nonzero;stroke:none"
             id="text120"><tspan
               x="0 8.8897552 19.256805 28.146561"
               y="0"
               sodipodi:role="line"
               id="tspan118">POST</tspan></text>
          <path
             d="m 65,115 h 46 v 19 H 65 Z"
             style="fill:#efefef;fill-opacity:1;fill-rule:nonzero;stroke:none"
             id="path122" />
          <path
             d="m 65.5,115.5 h 45 v 18 h -45 z"
             style="fill:none;stroke:#aa8888;stroke-width:1;stroke-linecap:butt;stroke-linejoin:miter;stroke-miterlimit:10;stroke-dasharray:none;stroke-opacity:1"
             id="path124" />
          <text
             xml:space="preserve"
             transform="translate(72.296875,129)"
             style="font-variant:normal;font-weight:normal;font-size:13.33px;font-family:Arial;-inkscape-font-specification:ArialMT;writing-mode:lr-tb;fill:#000000;fill-opacity:1;fill-rule:nonzero;stroke:none"
             id="text128"><tspan
               x="0 9.6251526 12.586243 19.998718 27.411194"
               y="0"
               sodipodi:role="line"
               id="tspan126">Clear</tspan></text>
          <text
             xml:space="preserve"
             transform="translate(8,171)"
             style="font-variant:normal;font-weight:bold;font-size:18.71px;font-family:'Times New Roman';-inkscape-font-specification:TimesNewRomanPS-BoldMT;writing-mode:lr-tb;fill:#000000;fill-opacity:1;fill-rule:nonzero;stroke:none"
             id="text132"><tspan
               x="0 14.547897 27.022736"
               y="0"
               sodipodi:role="line"
               id="tspan130">GET</tspan></text>
          <path
             d="m 9,196 h 41 v 19 H 9 Z"
             style="fill:#efefef;fill-opacity:1;fill-rule:nonzero;stroke:none"
             id="path134" />
          <path
             d="m 9.5,196.5 h 40 v 18 h -40 z"
             style="fill:none;stroke:#aa8888;stroke-width:1;stroke-linecap:butt;stroke-linejoin:miter;stroke-miterlimit:10;stroke-dasharray:none;stroke-opacity:1"
             id="path136" />
          <text
             xml:space="preserve"
             transform="translate(16,210)"
             style="font-variant:normal;font-weight:normal;font-size:13.33px;font-family:Arial;-inkscape-font-specification:ArialMT;writing-mode:lr-tb;fill:#000000;fill-opacity:1;fill-rule:nonzero;stroke:none"
             id="text140"><tspan
               x="0 10.36705 19.256805"
               y="0"
               sodipodi:role="line"
               id="tspan138">GET</tspan></text>
          <path
             d="m 56,196 h 46 v 19 H 56 Z"
             style="fill:#efefef;fill-opacity:1;fill-rule:nonzero;stroke:none"
             id="path142" />
          <path
             d="m 56.5,196.5 h 45 v 18 h -45 z"
             style="fill:none;stroke:#aa8888;stroke-width:1;stroke-linecap:butt;stroke-linejoin:miter;stroke-miterlimit:10;stroke-dasharray:none;stroke-opacity:1"
             id="path144" />
          <text
             xml:space="preserve"
             transform="translate(63.40625,210)"
             style="font-variant:normal;font-weight:normal;font-size:13.33px;font-family:Arial;-inkscape-font-specification:ArialMT;writing-mode:lr-tb;fill:#000000;fill-opacity:1;fill-rule:nonzero;stroke:none"
             id="text148"><tspan
               x="0 9.6251526 12.586243 19.998718 27.411194"
               y="0"
               sodipodi:role="line"
               id="tspan146">Clear</tspan></text>
          <path
             d="m 48.5,318.32999 v -75.65 c 0,-0.66844 0.128994,-1.33046 0.386978,-1.98605 0.257988,-0.65558 0.640015,-1.29215 1.14608,-1.90968 0.506062,-0.61754 1.126442,-1.20421 1.861138,-1.75998 0.734691,-0.55577 1.569583,-1.07 2.504669,-1.54265 0.935085,-0.47264 1.952396,-0.89465 3.051941,-1.26602 1.099544,-0.37136 2.260189,-0.68492 3.481941,-0.94072 1.221748,-0.25579 2.481121,-0.44889 3.778122,-0.5793 1.297005,-0.13039 2.60672,-0.19559 3.92913,-0.19559 H 214.84 c 0.61793,0 1.21237,0.055 1.78329,0.16516 0.57091,0.11012 1.07485,0.26692 1.51181,0.47041 0.43694,0.20347 0.77365,0.43811 1.01015,0.70397 0.23649,0.26585 0.35473,0.54268 0.35475,0.83046 v 75.65001 c -2e-5,0.66842 -0.12901,1.33044 -0.38701,1.98602 -0.25798,0.65558 -0.64001,1.29215 -1.14609,1.90967 -0.50607,0.61752 -1.12645,1.20419 -1.86113,1.75995 -0.73469,0.55578 -1.56959,1.07 -2.50467,1.54266 -0.93507,0.47263 -1.95239,0.89465 -3.05195,1.26602 -1.09953,0.37134 -2.26016,0.68491 -3.48192,0.94074 -1.22176,0.25583 -2.48112,0.44891 -3.77814,0.57931 C 201.99211,320.43478 200.6824,320.5 199.36,320.5 H 53.16 c -0.617958,-3e-5 -1.212395,-0.0551 -1.783306,-0.16522 -0.570919,-0.11014 -1.07486,-0.26691 -1.511814,-0.47037 -0.436963,-0.20349 -0.773686,-0.43817 -1.010167,-0.70404 -0.23648,-0.26584 -0.354717,-0.54263 -0.354713,-0.83038 z"
             style="fill:#ffeeee;fill-opacity:1;fill-rule:nonzero;stroke:none"
             id="path150" />
          <path
             d="m 48,318.32999 v -75.65 c -4e-6,-0.70128 0.132191,-1.39581 0.396584,-2.08358 0.264392,-0.68779 0.655906,-1.35563 1.174533,-2.0035 0.518628,-0.64787 1.154408,-1.26335 1.907341,-1.84642 0.752934,-0.58308 1.608551,-1.12254 2.566853,-1.61841 0.958302,-0.49586 2.000874,-0.9386 3.127716,-1.3282 1.126843,-0.38959 2.316299,-0.71857 3.568378,-0.98692 1.252079,-0.26836 2.542721,-0.47093 3.871922,-0.60774 C 65.942528,232.06841 67.284752,232 68.639999,232 H 214.84 c 0.68425,0 1.34246,0.0677 1.97462,0.20322 0.63217,0.13549 1.19019,0.32843 1.67404,0.57878 0.48384,0.25035 0.85668,0.53908 1.11853,0.86619 0.26186,0.32712 0.39279,0.66773 0.39281,1.02181 v 75.65001 c -2e-5,0.70126 -0.13222,1.39578 -0.39662,2.08355 -0.26441,0.68778 -0.65592,1.3556 -1.17455,2.00345 -0.51863,0.64786 -1.1544,1.26334 -1.90733,1.84644 -0.75293,0.58307 -1.60855,1.12256 -2.56685,1.61844 -0.95831,0.49585 -2.00088,0.93857 -3.12773,1.32815 -1.12685,0.38959 -2.3163,0.71857 -3.56836,0.98694 -1.25208,0.26837 -2.54271,0.47095 -3.87192,0.60776 -1.32919,0.13681 -2.6714,0.20523 -4.02664,0.20526 H 53.16 c -0.684265,-3e-5 -1.342484,-0.0678 -1.974655,-0.20331 -0.632168,-0.1355 -1.190174,-0.32843 -1.674019,-0.57876 -0.483845,-0.25037 -0.856697,-0.5391 -1.118553,-0.86621 C 48.13092,319.0246 47.999996,318.68402 48,318.32999 Z m 1,0 v -75.65 c -4e-6,-0.6356 0.125786,-1.2651 0.377369,-1.8885 0.251587,-0.62338 0.62413,-1.22868 1.11763,-1.8159 0.493504,-0.58721 1.09848,-1.14505 1.814934,-1.67353 0.716449,-0.52849 1.530613,-1.01744 2.442486,-1.46687 0.911869,-0.44943 1.903926,-0.85071 2.976173,-1.20384 1.072246,-0.35312 2.204079,-0.65129 3.395496,-0.89453 1.191418,-0.24323 2.419525,-0.42684 3.68433,-0.55083 C 66.073219,233.062 67.35041,233 68.639999,233 H 214.84 c 0.55162,0 1.08227,0.0424 1.59193,0.12709 0.50966,0.0847 0.95952,0.20541 1.34961,0.36202 0.39006,0.15657 0.69066,0.33717 0.90176,0.54177 0.21111,0.20461 0.31668,0.41764 0.3167,0.63912 v 75.65001 c -2e-5,0.63559 -0.12582,1.26504 -0.37741,1.88843 -0.25159,0.62338 -0.62413,1.22866 -1.11763,1.81588 -0.4935,0.58722 -1.09848,1.14508 -1.81493,1.67359 -0.71644,0.52847 -1.53061,1.01745 -2.44247,1.46688 -0.91188,0.44944 -1.90395,0.85071 -2.9762,1.20383 -1.07225,0.35309 -2.20407,0.65125 -3.39549,0.8945 -1.19142,0.24323 -2.41953,0.42685 -3.68431,0.55084 -1.2648,0.124 -2.54199,0.18601 -3.83156,0.18604 H 53.16 c -0.551655,-3e-5 -1.08231,-0.0424 -1.591969,-0.12717 -0.509662,-0.0848 -0.959526,-0.20544 -1.349598,-0.362 -0.390079,-0.15658 -0.690673,-0.33718 -0.901779,-0.54181 C 49.105549,318.76443 48.999996,318.55142 49,318.32999 Z"
             style="fill:#ccaaaa;fill-opacity:1;fill-rule:evenodd;stroke:none"
             id="path152" />
          <text
             xml:space="preserve"
             transform="translate(54,252)"
             style="font-variant:normal;font-weight:normal;font-size:16px;font-family:'Times New Roman';-inkscape-font-specification:TimesNewRomanPSMT;writing-mode:lr-tb;fill:#000000;fill-opacity:1;fill-rule:nonzero;stroke:none"
             id="text156"><tspan
               x="0 8"
               y="0"
               sodipodi:role="line"
               id="tspan154">3 </tspan></text>
          <text
             xml:space="preserve"
             transform="translate(66,252)"
             style="font-variant:normal;font-weight:normal;font-size:16px;font-family:'VL Gothic';-inkscape-font-specification:VL-Gothic-Regular;writing-mode:lr-tb;fill:#000000;fill-opacity:1;fill-rule:nonzero;stroke:none"
             id="text160"><tspan
               x="0 16.000031"
               y="0"
               sodipodi:role="line"
               id="tspan158">筒井</tspan></text>
          <text
             xml:space="preserve"
             transform="translate(98.000061,252)"
             style="font-variant:normal;font-weight:normal;font-size:16px;font-family:'Times New Roman';-inkscape-font-specification:TimesNewRomanPSMT;writing-mode:lr-tb;fill:#000000;fill-opacity:1;fill-rule:nonzero;stroke:none"
             id="text164"><tspan
               x="0"
               y="0"
               id="tspan162">:</tspan></text>
          <text
             xml:space="preserve"
             transform="translate(54,270)"
             style="font-variant:normal;font-weight:normal;font-size:16px;font-family:'VL Gothic';-inkscape-font-specification:VL-Gothic-Regular;writing-mode:lr-tb;fill:#000000;fill-opacity:1;fill-rule:nonzero;stroke:none"
             id="text168"><tspan
               x="0 16.000031 32.000061"
               y="0"
               sodipodi:role="line"
               id="tspan166">テスト</tspan></text>
          <text
             xml:space="preserve"
             transform="translate(102.00009,270)"
             style="font-variant:normal;font-weight:normal;font-size:16px;font-family:'Times New Roman';-inkscape-font-specification:TimesNewRomanPSMT;writing-mode:lr-tb;fill:#000000;fill-opacity:1;fill-rule:nonzero;stroke:none"
             id="text172"><tspan
               x="0"
               y="0"
               id="tspan170">3</tspan></text>
          <text
             xml:space="preserve"
             transform="translate(54,288)"
             style="font-variant:normal;font-weight:normal;font-size:16px;font-family:'Times New Roman';-inkscape-font-specification:TimesNewRomanPSMT;writing-mode:lr-tb;fill:#000000;fill-opacity:1;fill-rule:nonzero;stroke:none"
             id="text176"><tspan
               x="0 8 16 20.445312 28.445312 36.445312 40.890625 48.890625"
               y="0"
               sodipodi:role="line"
               id="tspan174">22:23:43</tspan></text>
          <path
             d="m 55,295 h 53 v 19 H 55 Z"
             style="fill:#efefef;fill-opacity:1;fill-rule:nonzero;stroke:none"
             id="path178" />
          <path
             d="m 55.5,295.5 h 52 v 18 h -52 z"
             style="fill:none;stroke:#aa8888;stroke-width:1;stroke-linecap:butt;stroke-linejoin:miter;stroke-miterlimit:10;stroke-dasharray:none;stroke-opacity:1"
             id="path180" />
          <text
             xml:space="preserve"
             transform="translate(62,309)"
             style="font-variant:normal;font-weight:normal;font-size:13.33px;font-family:Arial;-inkscape-font-specification:ArialMT;writing-mode:lr-tb;fill:#000000;fill-opacity:1;fill-rule:nonzero;stroke:none"
             id="text184"><tspan
               x="0 9.6251526 17.037628 19.998718 27.411194 31.114182"
               y="0"
               sodipodi:role="line"
               id="tspan182">Delete</tspan></text>
          <path
             d="m 110,295 h 37 v 19 h -37 z"
             style="fill:#efefef;fill-opacity:1;fill-rule:nonzero;stroke:none"
             id="path186" />
          <path
             d="m 110.5,295.5 h 36 v 18 h -36 z"
             style="fill:none;stroke:#aa8888;stroke-width:1;stroke-linecap:butt;stroke-linejoin:miter;stroke-miterlimit:10;stroke-dasharray:none;stroke-opacity:1"
             id="path188" />
          <text
             xml:space="preserve"
             transform="translate(116.53125,309)"
             style="font-variant:normal;font-weight:normal;font-size:13.33px;font-family:Arial;-inkscape-font-specification:ArialMT;writing-mode:lr-tb;fill:#000000;fill-opacity:1;fill-rule:nonzero;stroke:none"
             id="text192"><tspan
               x="0 8.8897552 16.302231 19.263321"
               y="0"
               sodipodi:role="line"
               id="tspan190">Edit</tspan></text>
          <text
             xml:space="preserve"
             transform="translate(154.5,309)"
             style="font-variant:normal;font-weight:normal;font-size:16px;font-family:'DejaVu Sans';-inkscape-font-specification:DejaVuSans;writing-mode:lr-tb;fill:#000000;fill-opacity:1;fill-rule:nonzero;stroke:none"
             id="text196"><tspan
               x="0"
               y="0"
               id="tspan194">☆</tspan></text>
          <path
             d="m 220.5,318.32999 v -75.65 c -2e-5,-0.66844 0.12897,-1.33046 0.38695,-1.98605 0.25799,-0.65558 0.64003,-1.29215 1.14609,-1.90968 0.50607,-0.61754 1.12644,-1.20421 1.86114,-1.75998 0.7347,-0.55577 1.5696,-1.07 2.50468,-1.54265 0.93508,-0.47264 1.9524,-0.89465 3.05193,-1.26602 1.09955,-0.37136 2.26019,-0.68492 3.48193,-0.94072 1.22176,-0.25579 2.48114,-0.44889 3.77814,-0.5793 C 238.00787,232.5652 239.31758,232.5 240.64,232.5 h 146.2 c 0.61792,0 1.21234,0.055 1.78326,0.16516 0.57089,0.11012 1.07486,0.26692 1.51184,0.47041 0.43692,0.20347 0.77365,0.43811 1.01013,0.70397 0.23648,0.26585 0.35474,0.54268 0.35477,0.83046 v 75.65001 c -3e-5,0.66842 -0.12903,1.33044 -0.38699,1.98602 -0.258,0.65558 -0.64005,1.29215 -1.14612,1.90967 -0.50607,0.61752 -1.12644,1.20419 -1.86115,1.75995 -0.73468,0.55578 -1.56955,1.07 -2.5046,1.54266 -0.93509,0.47263 -1.95243,0.89465 -3.05201,1.26602 -1.09955,0.37134 -2.26019,0.68491 -3.48193,0.94074 -1.22177,0.25583 -2.48114,0.44891 -3.77814,0.57931 -1.29699,0.1304 -2.60669,0.19562 -3.92907,0.19562 H 225.16 c -0.61796,-3e-5 -1.21241,-0.0551 -1.78334,-0.16522 -0.5709,-0.11014 -1.07484,-0.26691 -1.51179,-0.47037 -0.43697,-0.20349 -0.7737,-0.43817 -1.01018,-0.70404 -0.23648,-0.26584 -0.35471,-0.54263 -0.35469,-0.83038 z"
             style="fill:#ffeeee;fill-opacity:1;fill-rule:nonzero;stroke:none"
             id="path198" />
          <path
             d="m 220,318.32999 v -75.65 c -2e-5,-0.70128 0.13219,-1.39581 0.39658,-2.08358 0.26437,-0.68779 0.65588,-1.35563 1.17451,-2.0035 0.51863,-0.64787 1.15442,-1.26335 1.90735,-1.84642 0.75293,-0.58308 1.60855,-1.12254 2.56686,-1.61841 0.9583,-0.49586 2.00086,-0.9386 3.1277,-1.3282 1.12685,-0.38959 2.31632,-0.71857 3.56839,-0.98692 1.25209,-0.26836 2.54273,-0.47093 3.87192,-0.60774 C 237.94252,232.06841 239.28474,232 240.64,232 h 146.2 c 0.68423,0 1.34243,0.0677 1.97461,0.20322 0.63217,0.13549 1.19018,0.32843 1.67404,0.57878 0.48382,0.25035 0.85666,0.53908 1.11853,0.86619 0.26187,0.32712 0.39279,0.66773 0.39282,1.02181 v 75.65001 c -3e-5,0.70126 -0.13223,1.39578 -0.39664,2.08355 -0.2644,0.68778 -0.65591,1.3556 -1.17456,2.00345 -0.51864,0.64786 -1.15442,1.26334 -1.90732,1.84644 -0.75293,0.58307 -1.60855,1.12256 -2.56683,1.61844 -0.95831,0.49585 -2.00088,0.93857 -3.12772,1.32815 -1.12686,0.38959 -2.31634,0.71857 -3.56842,0.98694 -1.25207,0.26837 -2.54269,0.47095 -3.87188,0.60776 -1.3292,0.13681 -2.67139,0.20523 -4.02664,0.20526 L 225.16,321 c -0.68426,-3e-5 -1.34248,-0.0678 -1.97465,-0.20331 -0.63219,-0.1355 -1.19019,-0.32843 -1.67403,-0.57876 -0.48384,-0.25037 -0.8567,-0.5391 -1.11856,-0.86621 -0.26185,-0.32712 -0.39278,-0.6677 -0.39276,-1.02173 z m 1,0 v -75.65 c -2e-5,-0.6356 0.12578,-1.2651 0.37737,-1.8885 0.25157,-0.62338 0.62411,-1.22868 1.11761,-1.8159 0.4935,-0.58721 1.09846,-1.14505 1.81491,-1.67353 0.71646,-0.52849 1.53064,-1.01744 2.44252,-1.46687 0.91188,-0.44943 1.90393,-0.85071 2.97617,-1.20384 1.07225,-0.35312 2.20408,-0.65129 3.3955,-0.89453 1.19141,-0.24323 2.41953,-0.42684 3.68435,-0.55083 C 238.07321,233.062 239.3504,233 240.64,233 h 146.2 c 0.5516,0 1.08221,0.0424 1.59188,0.12709 0.50965,0.0847 0.95954,0.20541 1.34964,0.36202 0.39008,0.15657 0.69068,0.33717 0.90177,0.54177 0.21112,0.20461 0.31668,0.41764 0.31671,0.63912 v 75.65001 c 0,0.63559 -0.12579,1.26504 -0.37741,1.88843 -0.25162,0.62338 -0.62415,1.22866 -1.11765,1.81588 -0.4935,0.58722 -1.09848,1.14508 -1.81494,1.67359 -0.71643,0.52847 -1.53058,1.01745 -2.44244,1.46688 -0.9119,0.44944 -1.90399,0.85071 -2.97623,1.20383 -1.07223,0.35309 -2.20407,0.65125 -3.39548,0.8945 -1.1914,0.24323 -2.41952,0.42685 -3.68432,0.55084 -1.2648,0.124 -2.54196,0.18601 -3.83154,0.18604 H 225.16 c -0.55166,-3e-5 -1.08233,-0.0424 -1.59201,-0.12717 -0.50966,-0.0848 -0.95952,-0.20544 -1.34958,-0.362 -0.39009,-0.15658 -0.69068,-0.33718 -0.90179,-0.54181 -0.21111,-0.20459 -0.31664,-0.4176 -0.31662,-0.63903 z"
             style="fill:#ccaaaa;fill-opacity:1;fill-rule:evenodd;stroke:none"
             id="path200" />
          <text
             xml:space="preserve"
             transform="translate(226,252)"
             style="font-variant:normal;font-weight:normal;font-size:16px;font-family:'Times New Roman';-inkscape-font-specification:TimesNewRomanPSMT;writing-mode:lr-tb;fill:#000000;fill-opacity:1;fill-rule:nonzero;stroke:none"
             id="text204"><tspan
               x="0 8"
               y="0"
               sodipodi:role="line"
               id="tspan202">2 </tspan></text>
          <text
             xml:space="preserve"
             transform="translate(238,252)"
             style="font-variant:normal;font-weight:normal;font-size:16px;font-family:'VL Gothic';-inkscape-font-specification:VL-Gothic-Regular;writing-mode:lr-tb;fill:#000000;fill-opacity:1;fill-rule:nonzero;stroke:none"
             id="text208"><tspan
               x="0 16.000031"
               y="0"
               sodipodi:role="line"
               id="tspan206">筒井</tspan></text>
          <text
             xml:space="preserve"
             transform="translate(270.00006,252)"
             style="font-variant:normal;font-weight:normal;font-size:16px;font-family:'Times New Roman';-inkscape-font-specification:TimesNewRomanPSMT;writing-mode:lr-tb;fill:#000000;fill-opacity:1;fill-rule:nonzero;stroke:none"
             id="text212"><tspan
               x="0"
               y="0"
               id="tspan210">:</tspan></text>
          <text
             xml:space="preserve"
             transform="translate(226,270)"
             style="font-variant:normal;font-weight:normal;font-size:16px;font-family:'VL Gothic';-inkscape-font-specification:VL-Gothic-Regular;writing-mode:lr-tb;fill:#000000;fill-opacity:1;fill-rule:nonzero;stroke:none"
             id="text216"><tspan
               x="0 16.000031 32.000061"
               y="0"
               sodipodi:role="line"
               id="tspan214">テスト</tspan></text>
          <text
             xml:space="preserve"
             transform="translate(274.00009,270)"
             style="font-variant:normal;font-weight:normal;font-size:16px;font-family:'Times New Roman';-inkscape-font-specification:TimesNewRomanPSMT;writing-mode:lr-tb;fill:#000000;fill-opacity:1;fill-rule:nonzero;stroke:none"
             id="text220"><tspan
               x="0"
               y="0"
               id="tspan218">2</tspan></text>
          <text
             xml:space="preserve"
             transform="translate(226,288)"
             style="font-variant:normal;font-weight:normal;font-size:16px;font-family:'Times New Roman';-inkscape-font-specification:TimesNewRomanPSMT;writing-mode:lr-tb;fill:#000000;fill-opacity:1;fill-rule:nonzero;stroke:none"
             id="text224"><tspan
               x="0 8 16 20.445312 28.445312 36.445312 40.890625 48.890625"
               y="0"
               sodipodi:role="line"
               id="tspan222">22:23:40</tspan></text>
          <path
             d="m 227,295 h 53 v 19 h -53 z"
             style="fill:#efefef;fill-opacity:1;fill-rule:nonzero;stroke:none"
             id="path226" />
          <path
             d="m 227.5,295.5 h 52 v 18 h -52 z"
             style="fill:none;stroke:#aa8888;stroke-width:1;stroke-linecap:butt;stroke-linejoin:miter;stroke-miterlimit:10;stroke-dasharray:none;stroke-opacity:1"
             id="path228" />
          <text
             xml:space="preserve"
             transform="translate(234,309)"
             style="font-variant:normal;font-weight:normal;font-size:13.33px;font-family:Arial;-inkscape-font-specification:ArialMT;writing-mode:lr-tb;fill:#000000;fill-opacity:1;fill-rule:nonzero;stroke:none"
             id="text232"><tspan
               x="0 9.6251526 17.037628 19.998718 27.411194 31.114182"
               y="0"
               sodipodi:role="line"
               id="tspan230">Delete</tspan></text>
          <path
             d="m 282,295 h 37 v 19 h -37 z"
             style="fill:#efefef;fill-opacity:1;fill-rule:nonzero;stroke:none"
             id="path234" />
          <path
             d="m 282.5,295.5 h 36 v 18 h -36 z"
             style="fill:none;stroke:#aa8888;stroke-width:1;stroke-linecap:butt;stroke-linejoin:miter;stroke-miterlimit:10;stroke-dasharray:none;stroke-opacity:1"
             id="path236" />
          <text
             xml:space="preserve"
             transform="translate(288.53125,309)"
             style="font-variant:normal;font-weight:normal;font-size:13.33px;font-family:Arial;-inkscape-font-specification:ArialMT;writing-mode:lr-tb;fill:#000000;fill-opacity:1;fill-rule:nonzero;stroke:none"
             id="text240"><tspan
               x="0 8.8897552 16.302231 19.263321"
               y="0"
               sodipodi:role="line"
               id="tspan238">Edit</tspan></text>
          <text
             xml:space="preserve"
             transform="translate(326.5,309)"
             style="font-variant:normal;font-weight:normal;font-size:16px;font-family:'DejaVu Sans';-inkscape-font-specification:DejaVuSans;writing-mode:lr-tb;fill:#000000;fill-opacity:1;fill-rule:nonzero;stroke:none"
             id="text244"><tspan
               x="0"
               y="0"
               id="tspan242">☆</tspan></text>
          <path
             d="m 392.5,318.32999 v -75.65 c -3e-5,-0.66844 0.12897,-1.33046 0.38696,-1.98605 0.25797,-0.65558 0.63999,-1.29215 1.14606,-1.90968 0.50607,-0.61754 1.12643,-1.20421 1.86115,-1.75998 0.73471,-0.55577 1.56958,-1.07 2.50466,-1.54265 0.93509,-0.47264 1.95243,-0.89465 3.05195,-1.26602 1.09951,-0.37136 2.26016,-0.68492 3.48193,-0.94072 1.22177,-0.25579 2.48114,-0.44889 3.77817,-0.5793 1.29699,-0.13039 2.60672,-0.19559 3.92913,-0.19559 h 146.20002 c 0.61786,0 1.21228,0.055 1.7832,0.16516 0.57092,0.11012 1.07489,0.26692 1.51184,0.47041 0.43695,0.20347 0.77362,0.43811 1.01013,0.70397 0.23651,0.26585 0.35474,0.54268 0.3548,0.83046 v 75.65001 c 0,0.66842 -0.12903,1.33044 -0.38702,1.98602 -0.258,0.65558 -0.64002,1.29215 -1.14612,1.90967 -0.50604,0.61752 -1.12647,1.20419 -1.86115,1.75995 -0.73468,0.55578 -1.56952,1.07 -2.50464,1.54266 -0.93512,0.47263 -1.95239,0.89465 -3.05194,1.26602 -1.09955,0.37134 -2.26019,0.68491 -3.48193,0.94074 -1.22174,0.25583 -2.48114,0.44891 -3.77808,0.57931 -1.29705,0.1304 -2.60675,0.19562 -3.92913,0.19562 H 397.16 c -0.61798,-3e-5 -1.21243,-0.0551 -1.78335,-0.16522 -0.57092,-0.11014 -1.07486,-0.26691 -1.51181,-0.47037 -0.43698,-0.20349 -0.77368,-0.43817 -1.01013,-0.70404 -0.23648,-0.26584 -0.35474,-0.54263 -0.35471,-0.83038 z"
             style="fill:#ffeeee;fill-opacity:1;fill-rule:nonzero;stroke:none"
             id="path246" />
          <path
             d="m 392,318.32999 v -75.65 c -3e-5,-0.70128 0.13217,-1.39581 0.39655,-2.08358 0.2644,-0.68779 0.65591,-1.35563 1.17453,-2.0035 0.51861,-0.64787 1.15438,-1.26335 1.90734,-1.84642 0.75293,-0.58308 1.60856,-1.12254 2.56687,-1.61841 0.95828,-0.49586 2.00085,-0.9386 3.12768,-1.3282 1.12687,-0.38959 2.31632,-0.71857 3.56839,-0.98692 1.25208,-0.26836 2.54273,-0.47093 3.87195,-0.60774 1.32923,-0.13681 2.67145,-0.20522 4.0267,-0.20522 h 146.20002 c 0.6842,0 1.3424,0.0677 1.97461,0.20322 0.63214,0.13549 1.19018,0.32843 1.67401,0.57878 0.48382,0.25035 0.85663,0.53908 1.11847,0.86619 0.2619,0.32712 0.39282,0.66773 0.39288,1.02181 v 75.65001 c -6e-5,0.70126 -0.13226,1.39578 -0.39667,2.08355 -0.26446,0.68778 -0.65594,1.3556 -1.17456,2.00345 -0.51861,0.64786 -1.15436,1.26334 -1.90735,1.84644 -0.75287,0.58307 -1.60846,1.12256 -2.56677,1.61844 -0.95831,0.49585 -2.00085,0.93857 -3.12775,1.32815 -1.12689,0.38959 -2.31634,0.71857 -3.56842,0.98694 -1.25207,0.26837 -2.54272,0.47095 -3.87188,0.60776 -1.32923,0.13681 -2.67145,0.20523 -4.02661,0.20526 L 397.16,321 c -0.68429,-3e-5 -1.34253,-0.0678 -1.9747,-0.20331 -0.63217,-0.1355 -1.19018,-0.32843 -1.67398,-0.57876 -0.48385,-0.25037 -0.85672,-0.5391 -1.11856,-0.86621 -0.26187,-0.32712 -0.39279,-0.6677 -0.39276,-1.02173 z m 1,0 v -75.65 c 0,-0.6356 0.12576,-1.2651 0.37732,-1.8885 0.25156,-0.62338 0.62411,-1.22868 1.11761,-1.8159 0.4935,-0.58721 1.09851,-1.14505 1.81498,-1.67353 0.71646,-0.52849 1.53064,-1.01744 2.44253,-1.46687 0.91184,-0.44943 1.9039,-0.85071 2.97614,-1.20384 1.07223,-0.35312 2.20407,-0.65129 3.3955,-0.89453 1.19141,-0.24323 2.4195,-0.42684 3.6843,-0.55083 C 410.07321,233.062 411.35043,233 412.64001,233 h 146.20002 c 0.55163,0 1.08227,0.0424 1.59192,0.12709 0.50958,0.0847 0.95947,0.20541 1.34961,0.36202 0.39007,0.15657 0.69061,0.33717 0.90173,0.54177 0.21112,0.20461 0.31665,0.41764 0.31671,0.63912 v 75.65001 c 0,0.63559 -0.12579,1.26504 -0.37738,1.88843 -0.25165,0.62338 -0.62421,1.22866 -1.11768,1.81588 -0.49353,0.58722 -1.09851,1.14508 -1.81494,1.67359 -0.71649,0.52847 -1.53064,1.01745 -2.4425,1.46688 -0.91187,0.44944 -1.90393,0.85071 -2.97614,1.20383 -1.07226,0.35309 -2.2041,0.65125 -3.39551,0.8945 -1.19146,0.24323 -2.41955,0.42685 -3.68432,0.55084 -1.26483,0.124 -2.54199,0.18601 -3.83154,0.18604 H 397.16 c -0.55166,-3e-5 -1.08233,-0.0424 -1.59201,-0.12717 -0.50967,-0.0848 -0.95953,-0.20544 -1.34958,-0.362 -0.3901,-0.15658 -0.6907,-0.33718 -0.90179,-0.54181 -0.21112,-0.20459 -0.31665,-0.4176 -0.31662,-0.63903 z"
             style="fill:#ccaaaa;fill-opacity:1;fill-rule:evenodd;stroke:none"
             id="path248" />
          <text
             xml:space="preserve"
             transform="translate(398,252)"
             style="font-variant:normal;font-weight:normal;font-size:16px;font-family:'Times New Roman';-inkscape-font-specification:TimesNewRomanPSMT;writing-mode:lr-tb;fill:#000000;fill-opacity:1;fill-rule:nonzero;stroke:none"
             id="text252"><tspan
               x="0 8"
               y="0"
               sodipodi:role="line"
               id="tspan250">1 </tspan></text>
          <text
             xml:space="preserve"
             transform="translate(410,252)"
             style="font-variant:normal;font-weight:normal;font-size:16px;font-family:'VL Gothic';-inkscape-font-specification:VL-Gothic-Regular;writing-mode:lr-tb;fill:#000000;fill-opacity:1;fill-rule:nonzero;stroke:none"
             id="text256"><tspan
               x="0 16.000031"
               y="0"
               sodipodi:role="line"
               id="tspan254">筒井</tspan></text>
          <text
             xml:space="preserve"
             transform="translate(442.00006,252)"
             style="font-variant:normal;font-weight:normal;font-size:16px;font-family:'Times New Roman';-inkscape-font-specification:TimesNewRomanPSMT;writing-mode:lr-tb;fill:#000000;fill-opacity:1;fill-rule:nonzero;stroke:none"
             id="text260"><tspan
               x="0"
               y="0"
               id="tspan258">:</tspan></text>
          <text
             xml:space="preserve"
             transform="translate(398,270)"
             style="font-variant:normal;font-weight:normal;font-size:16px;font-family:'VL Gothic';-inkscape-font-specification:VL-Gothic-Regular;writing-mode:lr-tb;fill:#000000;fill-opacity:1;fill-rule:nonzero;stroke:none"
             id="text264"><tspan
               x="0 16.000031 32.000061"
               y="0"
               sodipodi:role="line"
               id="tspan262">テスト</tspan></text>
          <text
             xml:space="preserve"
             transform="translate(446.00009,270)"
             style="font-variant:normal;font-weight:normal;font-size:16px;font-family:'Times New Roman';-inkscape-font-specification:TimesNewRomanPSMT;writing-mode:lr-tb;fill:#000000;fill-opacity:1;fill-rule:nonzero;stroke:none"
             id="text268"><tspan
               x="0"
               y="0"
               id="tspan266">1</tspan></text>
          <text
             xml:space="preserve"
             transform="translate(398,288)"
             style="font-variant:normal;font-weight:normal;font-size:16px;font-family:'Times New Roman';-inkscape-font-specification:TimesNewRomanPSMT;writing-mode:lr-tb;fill:#000000;fill-opacity:1;fill-rule:nonzero;stroke:none"
             id="text272"><tspan
               x="0 8 16 20.445312 28.445312 36.445312 40.890625 48.890625"
               y="0"
               sodipodi:role="line"
               id="tspan270">22:23:38</tspan></text>
          <path
             d="m 399,295 h 53 v 19 h -53 z"
             style="fill:#efefef;fill-opacity:1;fill-rule:nonzero;stroke:none"
             id="path274" />
          <path
             d="m 399.5,295.5 h 52 v 18 h -52 z"
             style="fill:none;stroke:#aa8888;stroke-width:1;stroke-linecap:butt;stroke-linejoin:miter;stroke-miterlimit:10;stroke-dasharray:none;stroke-opacity:1"
             id="path276" />
          <text
             xml:space="preserve"
             transform="translate(406,309)"
             style="font-variant:normal;font-weight:normal;font-size:13.33px;font-family:Arial;-inkscape-font-specification:ArialMT;writing-mode:lr-tb;fill:#000000;fill-opacity:1;fill-rule:nonzero;stroke:none"
             id="text280"><tspan
               x="0 9.6251526 17.037628 19.998718 27.411194 31.114182"
               y="0"
               sodipodi:role="line"
               id="tspan278">Delete</tspan></text>
          <path
             d="m 454,295 h 37 v 19 h -37 z"
             style="fill:#efefef;fill-opacity:1;fill-rule:nonzero;stroke:none"
             id="path282" />
          <path
             d="m 454.5,295.5 h 36 v 18 h -36 z"
             style="fill:none;stroke:#aa8888;stroke-width:1;stroke-linecap:butt;stroke-linejoin:miter;stroke-miterlimit:10;stroke-dasharray:none;stroke-opacity:1"
             id="path284" />
          <text
             xml:space="preserve"
             transform="translate(460.53125,309)"
             style="font-variant:normal;font-weight:normal;font-size:13.33px;font-family:Arial;-inkscape-font-specification:ArialMT;writing-mode:lr-tb;fill:#000000;fill-opacity:1;fill-rule:nonzero;stroke:none"
             id="text288"><tspan
               x="0 8.8897552 16.302231 19.263321"
               y="0"
               sodipodi:role="line"
               id="tspan286">Edit</tspan></text>
          <text
             xml:space="preserve"
             transform="translate(498.5,309)"
             style="font-variant:normal;font-weight:normal;font-size:16px;font-family:'DejaVu Sans';-inkscape-font-specification:DejaVuSans;writing-mode:lr-tb;fill:#000000;fill-opacity:1;fill-rule:nonzero;stroke:none"
             id="text292"><tspan
               x="0"
               y="0"
               id="tspan290">☆</tspan></text>
          <path
             d="m 48.5,407.32999 v -75.65 c 0,-0.66842 0.128994,-1.33041 0.386978,-1.98602 0.257988,-0.65561 0.640015,-1.29218 1.14608,-1.90973 0.506062,-0.61752 1.126442,-1.20419 1.861138,-1.75998 0.734691,-0.55575 1.569583,-1.06998 2.504669,-1.54263 0.935085,-0.47266 1.952396,-0.89465 3.051941,-1.26602 1.099544,-0.37137 2.260189,-0.68497 3.481941,-0.94074 1.221748,-0.25577 2.481121,-0.44888 3.778122,-0.57928 1.297005,-0.1304 2.60672,-0.19559 3.92913,-0.19559 H 214.84 c 0.61793,0 1.21237,0.055 1.78329,0.16516 0.57091,0.11011 1.07485,0.26691 1.51181,0.47043 0.43694,0.20346 0.77365,0.43811 1.01015,0.70395 0.23649,0.26584 0.35473,0.54266 0.35475,0.83047 v 75.65 c -2e-5,0.66839 -0.12901,1.33038 -0.38701,1.98596 -0.25798,0.65558 -0.64001,1.29214 -1.14609,1.9097 -0.50607,0.61755 -1.12645,1.20422 -1.86113,1.76001 -0.73469,0.55575 -1.56959,1.06997 -2.50467,1.54263 -0.93507,0.47263 -1.95239,0.89462 -3.05195,1.26596 -1.09953,0.37137 -2.26016,0.68494 -3.48192,0.94074 -1.22176,0.25582 -2.48112,0.44891 -3.77814,0.57931 -1.29698,0.13043 -2.60669,0.19565 -3.92909,0.19568 H 53.16 c -0.617958,-3e-5 -1.212395,-0.0551 -1.783306,-0.16525 -0.570919,-0.11014 -1.07486,-0.26691 -1.511814,-0.47037 -0.436963,-0.20349 -0.773686,-0.43817 -1.010167,-0.70404 -0.23648,-0.26584 -0.354717,-0.5426 -0.354713,-0.83035 z"
             style="fill:#ffeeee;fill-opacity:1;fill-rule:nonzero;stroke:none"
             id="path294" />
          <path
             d="m 48,407.32999 v -75.65 c -4e-6,-0.70126 0.132191,-1.39581 0.396584,-2.08358 0.264392,-0.68778 0.655906,-1.35563 1.174533,-2.00351 0.518628,-0.64789 1.154408,-1.26337 1.907341,-1.84644 0.752934,-0.58307 1.608551,-1.12253 2.566853,-1.61838 0.958302,-0.49588 2.000874,-0.9386 3.127716,-1.32818 1.126843,-0.38959 2.316299,-0.71857 3.568378,-0.98694 1.252079,-0.26837 2.542721,-0.47095 3.871922,-0.60773 C 65.942528,321.06842 67.284752,321 68.639999,321 H 214.84 c 0.68425,0 1.34246,0.0677 1.97462,0.20322 0.63217,0.13549 1.19019,0.32843 1.67404,0.57879 0.48384,0.25034 0.85668,0.5391 1.11853,0.86621 0.26186,0.32712 0.39279,0.6677 0.39281,1.02179 v 75.65 c -2e-5,0.70123 -0.13222,1.39575 -0.39662,2.08352 -0.26441,0.68778 -0.65592,1.35559 -1.17455,2.00348 -0.51863,0.64789 -1.1544,1.26337 -1.90733,1.84644 -0.75293,0.5831 -1.60855,1.12256 -2.56685,1.61844 -0.95831,0.49588 -2.00088,0.9386 -3.12773,1.32818 -1.12685,0.38959 -2.3163,0.71857 -3.56836,0.98694 -1.25208,0.26834 -2.54271,0.47095 -3.87192,0.60776 -1.32919,0.13681 -2.6714,0.2052 -4.02664,0.20523 H 53.16 c -0.684265,0 -1.342484,-0.0677 -1.974655,-0.20325 -0.632168,-0.13553 -1.190174,-0.32846 -1.674019,-0.57879 -0.483845,-0.2504 -0.856697,-0.53913 -1.118553,-0.86624 C 48.13092,408.0246 47.999996,407.68402 48,407.32999 Z m 1,0 v -75.65 c -4e-6,-0.63559 0.125786,-1.2651 0.377369,-1.88849 0.251587,-0.62341 0.62413,-1.22873 1.11763,-1.81591 0.493504,-0.58719 1.09848,-1.14505 1.814934,-1.67356 0.716449,-0.52847 1.530613,-1.01742 2.442486,-1.46686 0.911869,-0.44943 1.903926,-0.85073 2.976173,-1.20385 1.072246,-0.35312 2.204079,-0.65128 3.395496,-0.8945 1.191418,-0.24323 2.419525,-0.42685 3.68433,-0.55085 C 66.073219,322.06198 67.35041,322 68.639999,322 H 214.84 c 0.55162,0 1.08227,0.0424 1.59193,0.12708 0.50966,0.0847 0.95952,0.20544 1.34961,0.36203 0.39006,0.15658 0.69066,0.33718 0.90176,0.5418 0.21111,0.20456 0.31668,0.41761 0.3167,0.6391 v 75.65 c -2e-5,0.63556 -0.12582,1.26504 -0.37741,1.88843 -0.25159,0.62338 -0.62413,1.22866 -1.11763,1.81591 -0.4935,0.58722 -1.09848,1.14505 -1.81493,1.67353 -0.71644,0.52847 -1.53061,1.01745 -2.44247,1.46691 -0.91188,0.44941 -1.90395,0.85065 -2.9762,1.20377 -1.07225,0.35312 -2.20407,0.65131 -3.39549,0.89453 -1.19142,0.24326 -2.41953,0.42688 -3.68431,0.55087 -1.2648,0.124 -2.54199,0.18601 -3.83156,0.18604 H 53.16 c -0.551655,-3e-5 -1.08231,-0.0424 -1.591969,-0.12717 -0.509662,-0.0847 -0.959526,-0.20541 -1.349598,-0.362 -0.390079,-0.15661 -0.690673,-0.33722 -0.901779,-0.54181 C 49.105549,407.7644 48.999996,407.55139 49,407.32999 Z"
             style="fill:#ccaaaa;fill-opacity:1;fill-rule:evenodd;stroke:none"
             id="path296" />
          <text
             xml:space="preserve"
             transform="translate(54,341)"
             style="font-variant:normal;font-weight:normal;font-size:16px;font-family:'Times New Roman';-inkscape-font-specification:TimesNewRomanPSMT;writing-mode:lr-tb;fill:#000000;fill-opacity:1;fill-rule:nonzero;stroke:none"
             id="text300"><tspan
               x="0 8"
               y="0"
               sodipodi:role="line"
               id="tspan298">0 </tspan></text>
          <text
             xml:space="preserve"
             transform="translate(66,341)"
             style="font-variant:normal;font-weight:normal;font-size:16px;font-family:'VL Gothic';-inkscape-font-specification:VL-Gothic-Regular;writing-mode:lr-tb;fill:#000000;fill-opacity:1;fill-rule:nonzero;stroke:none"
             id="text304"><tspan
               x="0 16.000031"
               y="0"
               sodipodi:role="line"
               id="tspan302">筒井</tspan></text>
          <text
             xml:space="preserve"
             transform="translate(98.000061,341)"
             style="font-variant:normal;font-weight:normal;font-size:16px;font-family:'Times New Roman';-inkscape-font-specification:TimesNewRomanPSMT;writing-mode:lr-tb;fill:#000000;fill-opacity:1;fill-rule:nonzero;stroke:none"
             id="text308"><tspan
               x="0"
               y="0"
               id="tspan306">:</tspan></text>
          <text
             xml:space="preserve"
             transform="translate(54,359)"
             style="font-variant:normal;font-weight:normal;font-size:16px;font-family:'VL Gothic';-inkscape-font-specification:VL-Gothic-Regular;writing-mode:lr-tb;fill:#000000;fill-opacity:1;fill-rule:nonzero;stroke:none"
             id="text312"><tspan
               x="0 16.000031 32.000061"
               y="0"
               sodipodi:role="line"
               id="tspan310">テスト</tspan></text>
          <text
             xml:space="preserve"
             transform="translate(54,377)"
             style="font-variant:normal;font-weight:normal;font-size:16px;font-family:'Times New Roman';-inkscape-font-specification:TimesNewRomanPSMT;writing-mode:lr-tb;fill:#000000;fill-opacity:1;fill-rule:nonzero;stroke:none"
             id="text316"><tspan
               x="0 8 16 20.445312 28.445312 36.445312 40.890625 48.890625"
               y="0"
               sodipodi:role="line"
               id="tspan314">22:23:35</tspan></text>
          <path
             d="m 55,384 h 53 v 19 H 55 Z"
             style="fill:#efefef;fill-opacity:1;fill-rule:nonzero;stroke:none"
             id="path318" />
          <path
             d="m 55.5,384.5 h 52 v 18 h -52 z"
             style="fill:none;stroke:#aa8888;stroke-width:1;stroke-linecap:butt;stroke-linejoin:miter;stroke-miterlimit:10;stroke-dasharray:none;stroke-opacity:1"
             id="path320" />
          <text
             xml:space="preserve"
             transform="translate(62,398)"
             style="font-variant:normal;font-weight:normal;font-size:13.33px;font-family:Arial;-inkscape-font-specification:ArialMT;writing-mode:lr-tb;fill:#000000;fill-opacity:1;fill-rule:nonzero;stroke:none"
             id="text324"><tspan
               x="0 9.6251526 17.037628 19.998718 27.411194 31.114182"
               y="0"
               sodipodi:role="line"
               id="tspan322">Delete</tspan></text>
          <path
             d="m 110,384 h 37 v 19 h -37 z"
             style="fill:#efefef;fill-opacity:1;fill-rule:nonzero;stroke:none"
             id="path326" />
          <path
             d="m 110.5,384.5 h 36 v 18 h -36 z"
             style="fill:none;stroke:#aa8888;stroke-width:1;stroke-linecap:butt;stroke-linejoin:miter;stroke-miterlimit:10;stroke-dasharray:none;stroke-opacity:1"
             id="path328" />
          <text
             xml:space="preserve"
             transform="translate(116.53125,398)"
             style="font-variant:normal;font-weight:normal;font-size:13.33px;font-family:Arial;-inkscape-font-specification:ArialMT;writing-mode:lr-tb;fill:#000000;fill-opacity:1;fill-rule:nonzero;stroke:none"
             id="text332"><tspan
               x="0 8.8897552 16.302231 19.263321"
               y="0"
               sodipodi:role="line"
               id="tspan330">Edit</tspan></text>
          <text
             xml:space="preserve"
             transform="translate(154.5,398)"
             style="font-variant:normal;font-weight:normal;font-size:16px;font-family:'DejaVu Sans';-inkscape-font-specification:DejaVuSans;writing-mode:lr-tb;fill:#000000;fill-opacity:1;fill-rule:nonzero;stroke:none"
             id="text336"><tspan
               x="0"
               y="0"
               id="tspan334">☆</tspan></text>
        </g>
      </g>
    </g>
  </g>
</svg>
